<svg width="40" height="41" viewBox="0 0 40 41" fill="none" xmlns="http://www.w3.org/2000/svg">
<path fill-rule="evenodd" clip-rule="evenodd" d="M32.6595 21.1852L23.1795 23.7252C21.4962 24.1768 19.7662 23.1768 19.3145 21.4935L16.7745 12.0135C16.3228 10.3302 17.3228 8.60015 19.0062 8.14849L28.4862 5.60849C30.1695 5.15682 31.8995 6.15682 32.3512 7.84015L34.8912 17.3202C35.3428 19.0035 34.3428 20.7335 32.6595 21.1852V21.1852Z" stroke="#191919" stroke-width="3" stroke-linecap="round" stroke-linejoin="round"/>
<path fill-rule="evenodd" clip-rule="evenodd" d="M16.2493 35.4997C18.7807 35.4997 20.8327 33.4476 20.8327 30.9163C20.8327 28.385 18.7807 26.333 16.2493 26.333C13.718 26.333 11.666 28.385 11.666 30.9163C11.666 33.4476 13.718 35.4997 16.2493 35.4997Z" stroke="#0064D9" stroke-width="3" stroke-linecap="round" stroke-linejoin="round"/>
<path d="M3.33398 6.55511L6.11065 5.81177C7.88898 5.33511 9.71732 6.39011 10.194 8.16844" stroke="#0064D9" stroke-width="3" stroke-linecap="round" stroke-linejoin="round"/>
<path d="M10.1934 8.16846L15.1 26.4785" stroke="#0064D9" stroke-width="3" stroke-linecap="round" stroke-linejoin="round"/>
<path d="M35.9169 25.6836L20.6836 29.7503" stroke="#0064D9" stroke-width="3" stroke-linecap="round" stroke-linejoin="round"/>
</svg>
