<svg width="500" height="437" viewBox="0 0 500 437" fill="none" xmlns="http://www.w3.org/2000/svg">
<g clip-path="url(#clip0_2202_29823)">
<path d="M464.083 410.626C464.083 433.894 433.343 423.009 322.13 430.57C102.125 445.528 60.2667 421.248 59.1997 410.626C56.5347 384.074 84.4787 277.28 273.854 288.586C385.203 295.233 464.083 396.574 464.083 410.626Z" fill="#EDF0FF"/>
<path d="M99.2127 306.128C75.9217 284.394 100.707 261.758 104.535 238.053C107.846 217.559 93.8267 200.317 91.7897 180.652C89.3437 157.027 104.194 151.901 121.179 141.71C133.445 134.35 140.484 124.817 145.499 111.112C152.324 92.4613 158.326 60.8393 184.711 71.2983C197.443 76.3463 199.977 92.1893 211.18 99.0703C228.612 109.772 247.181 94.8633 261.176 84.9303C292.757 62.5163 353.456 75.5713 358.367 120.589C360.171 137.136 364.716 147.565 378.717 156.163C394.85 166.069 416.639 173.07 409.895 196.782C405.349 212.764 386.463 224.258 391.365 242.759C395.516 258.421 414.896 269.099 419.326 285.888C423.496 301.702 413.923 312.366 403.512 322.701C381.337 344.711 355.071 358.535 329.667 375.732C313.005 387.01 295.059 398.921 275.849 404.987C243.064 415.343 222.589 394.233 206.43 367.557C195.885 350.148 183.711 331.715 164.466 323.861C143.282 315.214 117.457 323.153 99.2127 306.128Z" fill="#E3E8FF"/>
<path d="M98.1205 217.067C104.513 218.892 97.7095 220.792 96.6575 222.782C95.7485 224.503 99.5985 225.95 100.156 227.601C100.827 229.584 96.7495 230.014 92.0875 230.869C88.7195 231.487 86.7875 232.287 85.4115 233.438C83.5365 235.003 81.8885 237.658 74.6455 236.78C71.1505 236.356 70.4555 235.027 67.3785 234.449C62.5915 233.551 57.4935 234.802 53.6505 235.635C44.9805 237.517 28.3155 236.421 26.9685 232.642C26.4715 231.253 25.2245 230.378 21.3795 229.656C16.9495 228.825 10.9685 228.237 12.8195 226.246C14.0675 224.905 19.2535 223.94 17.9075 222.387C16.7685 221.072 11.4475 220.176 10.2315 218.767C9.08649 217.44 11.7155 216.544 14.5735 215.677C20.6615 213.83 27.8725 212.669 34.8465 211.226C39.4215 210.279 44.3475 209.28 49.6225 208.77C58.6235 207.9 64.2445 209.673 68.6825 211.912C71.5775 213.373 74.9185 214.92 80.2025 215.58C86.0205 216.304 93.1105 215.638 98.1205 217.067Z" stroke="#E3E8FF" stroke-miterlimit="10"/>
<path d="M481.124 68.3166C487.517 70.1416 480.713 72.0416 479.662 74.0316C478.753 75.7516 482.603 77.1986 483.161 78.8506C483.832 80.8336 479.754 81.2636 475.092 82.1186C471.725 82.7366 469.792 83.5366 468.416 84.6876C466.541 86.2526 464.893 88.9076 457.65 88.0296C454.154 87.6056 453.46 86.2766 450.383 85.6986C445.596 84.8006 440.498 86.0516 436.655 86.8846C427.986 88.7666 411.32 87.6706 409.973 83.8916C409.476 82.5026 408.229 81.6276 404.384 80.9056C399.954 80.0746 393.973 79.4866 395.824 77.4956C397.072 76.1546 402.258 75.1896 400.912 73.6366C399.773 72.3216 394.452 71.4256 393.235 70.0166C392.09 68.6896 394.719 67.7936 397.577 66.9266C403.665 65.0796 410.876 63.9186 417.85 62.4756C422.425 61.5286 427.351 60.5296 432.626 60.0196C441.627 59.1496 447.248 60.9226 451.686 63.1616C454.581 64.6226 457.922 66.1696 463.206 66.8296C469.024 67.5546 476.114 66.8886 481.124 68.3166Z" stroke="#E3E8FF" stroke-miterlimit="10"/>
<path d="M155.723 31.8877C150.276 29.3287 156.073 26.6647 156.969 23.8737C157.744 21.4607 154.463 19.4317 153.987 17.1157C153.415 14.3357 156.89 13.7317 160.862 12.5327C163.731 11.6657 165.378 10.5437 166.55 8.93067C168.147 6.73567 169.552 3.01267 175.724 4.24367C178.702 4.83867 179.294 6.70267 181.916 7.51267C185.994 8.77167 190.339 7.01767 193.612 5.84867C200.999 3.20967 215.199 4.74667 216.347 10.0457C216.771 11.9937 217.833 13.2207 221.109 14.2337C224.883 15.3987 229.98 16.2237 228.402 19.0147C227.339 20.8957 222.92 22.2487 224.067 24.4267C225.038 26.2707 229.571 27.5267 230.608 29.5037C231.583 31.3647 229.344 32.6207 226.908 33.8377C221.72 36.4287 215.576 38.0557 209.634 40.0797C205.736 41.4077 201.538 42.8087 197.044 43.5237C189.375 44.7427 184.585 42.2577 180.804 39.1177C178.337 37.0697 175.491 34.8987 170.988 33.9747C166.033 32.9567 159.993 33.8907 155.723 31.8877Z" stroke="#E3E8FF" stroke-miterlimit="10"/>
<path d="M215.142 402.88C215.142 406.578 212.143 409.577 208.444 409.577H208.142C204.443 409.577 201.445 406.579 201.445 402.88V312.405C201.445 308.707 204.444 305.708 208.142 305.708H208.444C212.143 305.708 215.142 308.707 215.142 312.405V402.88Z" fill="#B7C2F7"/>
<path d="M227.979 411.634C227.979 414.049 226.021 416.008 223.606 416.008C221.192 416.008 219.234 414.05 219.234 411.634C219.234 409.22 221.192 407.262 223.606 407.262C226.021 407.262 227.979 409.219 227.979 411.634Z" stroke="#B7C2F7" stroke-width="1.1414" stroke-miterlimit="10"/>
<path d="M212.526 411.634C212.526 414.049 210.568 416.008 208.153 416.008C205.739 416.008 203.781 414.05 203.781 411.634C203.781 409.22 205.739 407.262 208.153 407.262C210.568 407.262 212.526 409.219 212.526 411.634Z" stroke="#B7C2F7" stroke-width="1.1414" stroke-miterlimit="10"/>
<path d="M197.069 411.634C197.069 414.049 195.111 416.008 192.696 416.008C190.282 416.008 188.324 414.05 188.324 411.634C188.324 409.22 190.282 407.262 192.696 407.262C195.111 407.262 197.069 409.219 197.069 411.634Z" stroke="#B7C2F7" stroke-width="1.1414" stroke-miterlimit="10"/>
<path d="M225.417 404.441C225.417 406.647 223.629 408.436 221.422 408.436H192.886C190.68 408.436 188.891 406.647 188.891 404.441C188.891 402.235 190.679 400.446 192.886 400.446H221.422C223.629 400.446 225.417 402.235 225.417 404.441Z" fill="#9CABF7"/>
<path d="M249.037 305.137C249.037 311.681 243.484 317.122 236.632 317.122H180.538C173.687 317.122 168.133 311.681 168.133 305.137C168.133 298.592 173.687 293.152 180.538 293.152H236.632C243.484 293.152 249.037 298.592 249.037 305.137Z" fill="#B7C2F7"/>
<path d="M441.895 262.715C436.823 266.574 437.051 274.633 440.766 281.05C447.153 292.086 461.71 301.978 445.458 312.833C440.548 316.111 432.898 318.563 427.131 316.135C422.395 314.139 413.379 302.299 422.13 299.68C430.473 297.183 434.516 312.796 428.463 317.119C418.78 324.037 402.973 316.194 392.357 317.055C376.99 318.3 392.019 333.201 393.345 339.761C398.058 363.09 350.299 350.704 342.376 342.165C336.81 336.166 332.648 323.232 339.626 316.514C345.762 310.607 353.394 315.686 354.231 323.341C356.072 340.265 333.675 342.782 322.25 342.336" stroke="#ADB9F0" stroke-width="1.1414" stroke-miterlimit="10" stroke-linecap="round" stroke-linejoin="round" stroke-dasharray="3.42 3.42"/>
<path d="M446.512 257.259L460.153 245.784L457.481 242.299L447.736 249.537L446.512 257.259Z" fill="#8290CF"/>
<path d="M451.892 249.486L444.211 244.907C443.975 244.767 443.677 244.78 443.454 244.939C443.231 245.099 443.124 245.378 443.184 245.646L445.596 256.758C445.653 257.018 445.852 257.222 446.113 257.282C446.247 257.314 446.385 257.304 446.51 257.259C446.625 257.217 446.729 257.144 446.808 257.045L452.077 250.512C452.203 250.357 452.254 250.155 452.219 249.957C452.181 249.759 452.065 249.59 451.892 249.486Z" fill="#B3C0FF"/>
<path d="M478.253 229.846C478.081 229.629 477.795 229.535 477.529 229.609L436.801 240.737C436.53 240.813 436.337 241.035 436.299 241.309C436.262 241.583 436.392 241.854 436.63 241.995L462.725 257.551C462.885 257.647 463.078 257.673 463.259 257.623C463.279 257.618 463.298 257.613 463.317 257.605C463.472 257.547 463.602 257.434 463.685 257.288L478.317 230.606C478.449 230.362 478.425 230.063 478.253 229.846Z" fill="#E3E8FF"/>
<path d="M451.701 250.978L477.712 230.272L443.246 245.938L451.701 250.978Z" fill="#B3C0FF"/>
<path d="M322.673 147.395C327.513 160.519 314.458 178.805 298.479 172.913C291.711 170.418 286.698 159.705 295.219 155.361C304.267 150.749 312.298 163.81 307.648 171.174C301.275 181.263 282.627 175.574 274.922 184.414C258.274 203.514 279.014 232.693 301.86 218.342C305.695 215.934 310.9 207.763 308.993 203.222C305.868 195.784 294.926 201.36 291.031 205.238C276.389 219.819 299.989 227.143 311.466 226.714C325.987 226.172 342.972 230.651 351.725 243.063C366.97 264.682 333.302 301.984 318.834 273.211C316.232 268.037 316.335 256.234 321.238 252.067C327.905 246.402 336.406 254.967 332.364 261.965C328.159 269.242 312.172 269.442 305.321 266.65C296.884 263.212 292.923 253.681 290.593 245.447" stroke="#ADB9F0" stroke-width="1.1414" stroke-miterlimit="10" stroke-linecap="round" stroke-linejoin="round" stroke-dasharray="3.42 3.42"/>
<path d="M320.224 143.909L306.227 132.87L308.789 129.303L318.757 136.231L320.224 143.909Z" fill="#C4C4C4"/>
<path d="M314.6 136.309L322.134 131.491C322.366 131.343 322.663 131.347 322.891 131.499C323.12 131.652 323.234 131.928 323.183 132.197L321.122 143.379C321.073 143.64 320.88 143.85 320.621 143.919C320.488 143.956 320.35 143.95 320.224 143.908C320.107 143.87 320.001 143.801 319.92 143.704L314.447 137.34C314.317 137.189 314.259 136.989 314.289 136.79C314.319 136.592 314.429 136.418 314.6 136.309Z" fill="#DBDBDB"/>
<path d="M287.631 117.51C287.796 117.287 288.079 117.185 288.348 117.25L329.407 127.091C329.68 127.158 329.88 127.373 329.925 127.647C329.971 127.92 329.85 128.195 329.616 128.343L304.024 144.713C303.867 144.814 303.675 144.847 303.492 144.803C303.472 144.798 303.453 144.794 303.434 144.787C303.277 144.734 303.143 144.625 303.056 144.482L287.591 118.274C287.452 118.032 287.466 117.732 287.631 117.51Z" fill="white"/>
<path d="M314.837 137.796L288.188 117.921L323.13 132.493L314.837 137.796Z" fill="#DBDBDB"/>
<path d="M192.8 411.153C198.564 423.278 201.381 422.392 202.959 421.637C204.537 420.885 208.533 418.121 202.038 407.37C196.768 398.644 192.959 395.988 191.381 396.74C189.804 397.495 189.902 405.055 192.8 411.153Z" fill="#F38061"/>
<path d="M193.794 409.136C196.702 415.228 199.023 416.504 200.601 415.751C202.179 414.997 202.416 412.5 199.507 406.409C196.598 400.316 192.961 395.99 191.383 396.743C189.805 397.495 190.883 403.044 193.794 409.136Z" fill="#F3B595"/>
<path d="M173.627 295.593C173.627 295.593 162.69 318.962 207.151 312.173C207.151 312.173 250.366 322.384 245.065 295.593C245.065 295.593 211.561 274.47 173.627 295.593Z" fill="#15214F"/>
<path d="M194.788 288.294C194.788 288.294 221.381 286.759 197.276 399.684L190.002 402.721C190.002 402.721 161.594 280.38 194.788 288.294Z" fill="#15214F"/>
<path d="M184.981 409.797C174.956 418.728 172.706 416.816 171.545 415.507C170.384 414.2 167.777 410.101 177.94 402.721C186.188 396.731 190.73 395.763 191.891 397.071C193.052 398.379 190.022 405.306 184.981 409.797Z" fill="#F38061"/>
<path d="M184.85 407.552C179.802 412.034 177.168 412.307 176.007 411C174.846 409.692 175.599 407.299 180.647 402.818C185.696 398.336 190.73 395.763 191.89 397.071C193.051 398.379 189.899 403.071 184.85 407.552Z" fill="#F3B595"/>
<path d="M230.062 291.848C230.062 291.848 207.272 280.77 185.988 397.811L191.196 402.221C191.196 402.221 264.02 297.145 230.062 291.848Z" fill="#1E2E6E"/>
<path d="M209.458 124.545C209.458 124.545 175.191 117.373 163.777 239.505C163.777 239.505 198.21 252.225 209.434 252.061C209.434 252.061 244.311 255.63 260.798 247.495C260.798 247.495 242.535 126.504 209.458 124.545Z" fill="#F38061"/>
<path d="M170.626 191.566C170.626 191.566 139.808 330.82 208.849 211.262C208.849 211.262 244.312 255.63 260.798 247.496C260.798 247.496 251.809 192.708 242.269 169.96L170.626 191.566Z" fill="#EB6F4D"/>
<path d="M236.156 233.253C236.156 233.253 241.874 249.103 246.074 256.696C246.074 256.696 239.112 260.559 234.546 269.833V276.789C235.687 276.041 267.246 264.095 263.591 254.635C249.543 218.268 237.508 208.172 223.34 205.762C212.179 203.863 203.924 203.77 195.676 205.762C185.698 208.172 173.832 214.192 158.634 252.574C155.595 260.249 180.274 273.911 183.098 273.956L187.895 268.117C189.646 268.084 174.316 257.194 175.107 255.922C182.313 244.323 184.265 236.133 184.265 236.133C184.265 236.133 181.288 241.497 185.667 258.755C188.222 268.826 178.973 293.529 178.973 293.529C180.772 293.578 241.778 294.471 248.192 293.312C248.192 293.312 234.286 272.408 237.023 256.518C239.166 244.068 236.156 233.253 236.156 233.253Z" fill="#FFC670"/>
<path d="M203.928 175.586L195.957 206.037C195.957 206.037 208.265 244.744 221.215 206.175L212.949 175.587H203.928V175.586Z" fill="#F3B595"/>
<path d="M215.549 184.98L212.948 175.585H203.927L196.133 205.491C203.892 200.807 212.031 192.427 215.549 184.98Z" fill="#F2AC88"/>
<path d="M228.839 173.304C228.839 184.02 220.151 192.708 209.435 192.708C198.718 192.708 190.031 184.02 190.031 173.304V152.758C190.031 142.042 198.719 133.354 209.435 133.354C220.151 133.354 228.839 142.042 228.839 152.758V173.304Z" fill="#F3B595"/>
<path d="M234.993 162.327C234.993 166.31 232.371 169.54 229.134 169.54C225.9 169.54 223.277 166.31 223.277 162.327C223.277 158.343 225.9 155.114 229.134 155.114C232.371 155.114 234.993 158.343 234.993 162.327Z" fill="#F3B595"/>
<path d="M206.555 179.376C206.555 179.376 212.776 179.46 219.19 174.629C219.19 174.629 218.654 190.15 206.555 179.376Z" fill="#9C6448"/>
<path d="M196.869 162.327C196.869 166.31 194.247 169.54 191.01 169.54C187.776 169.54 185.152 166.31 185.152 162.327C185.152 158.343 187.775 155.114 191.01 155.114C194.247 155.114 196.869 158.343 196.869 162.327Z" fill="#F3B595"/>
<path d="M220.357 135.183C220.762 138.38 218.229 143.656 215.53 146.869C208.301 155.474 196.941 155.114 188.526 155.114C189.233 146.366 187.588 145.62 187.914 144.466C190.863 134.016 201.006 127.167 212.288 130.086C216.999 131.304 219.983 132.245 220.357 135.183Z" fill="#F38061"/>
<path d="M219.562 135.183C219.562 135.183 223.276 153.075 229.134 157.701C229.134 157.701 239.145 143.147 219.562 135.183Z" fill="#F38061"/>
<path d="M187.891 158.549C187.891 158.549 191.59 130.666 208.849 129.408C208.849 129.408 227.569 128.151 231.614 158.549" stroke="black" stroke-width="2.2828" stroke-miterlimit="10" stroke-linecap="round" stroke-linejoin="round"/>
<path d="M191.007 161.898C191.007 164.357 189.811 166.35 188.336 166.35C186.861 166.35 185.664 164.357 185.664 161.898C185.664 159.438 186.861 157.445 188.336 157.445C189.812 157.444 191.007 159.438 191.007 161.898Z" fill="black"/>
<path d="M234.284 161.898C234.284 164.357 233.089 166.35 231.613 166.35C230.138 166.35 228.941 164.357 228.941 161.898C228.941 159.438 230.138 157.445 231.613 157.445C233.089 157.444 234.284 159.438 234.284 161.898Z" fill="black"/>
<path d="M210.712 186.416C209.088 186.547 207.708 185.865 207.629 184.891C207.55 183.917 208.802 183.02 210.424 182.888C212.048 182.755 213.429 183.438 213.507 184.412C213.587 185.387 212.335 186.283 210.712 186.416Z" fill="black"/>
<path d="M189.727 165.696C189.727 165.696 195.797 183.794 208.85 184.653" stroke="black" stroke-width="1.1414" stroke-miterlimit="10" stroke-linecap="round" stroke-linejoin="round"/>
<path d="M202.638 159.708C202.638 160.348 202.119 160.867 201.479 160.867C200.839 160.867 200.32 160.348 200.32 159.708C200.32 159.068 200.839 158.549 201.479 158.549C202.12 158.549 202.638 159.067 202.638 159.708Z" fill="black"/>
<path d="M217.064 159.708C217.064 160.348 216.545 160.867 215.905 160.867C215.265 160.867 214.746 160.348 214.746 159.708C214.746 159.068 215.265 158.549 215.905 158.549C216.545 158.549 217.064 159.067 217.064 159.708Z" fill="black"/>
<path d="M208.955 160.738C208.955 160.738 208.512 164.59 206.457 170.81C206.457 170.81 207.34 171.793 210.567 172.382" stroke="#9C6A51" stroke-width="0.5707" stroke-miterlimit="10" stroke-linecap="round" stroke-linejoin="round"/>
<path d="M217.062 155.114L220.357 157.444" stroke="#F38061" stroke-width="1.1414" stroke-miterlimit="10" stroke-linecap="round" stroke-linejoin="round"/>
<path d="M201.809 155.114L198.516 157.444" stroke="#F38061" stroke-width="1.1414" stroke-miterlimit="10" stroke-linecap="round" stroke-linejoin="round"/>
<path d="M187.254 228.637C184.462 234.141 180.891 244.458 185.667 255.407" stroke="#FFAE33" stroke-width="1.1414" stroke-miterlimit="10" stroke-linecap="round" stroke-linejoin="round"/>
<path d="M233.816 228.637C236.608 234.141 240.179 244.458 235.403 255.407" stroke="#FFAE33" stroke-width="1.1414" stroke-miterlimit="10" stroke-linecap="round" stroke-linejoin="round"/>
<path d="M196.132 205.079C196.132 205.079 183.934 238.125 208.511 222.903C208.511 222.903 200.219 221.017 196.132 205.079Z" fill="#FFE2A3"/>
<path d="M221.276 205.079C221.276 205.079 232.549 238.578 208.898 222.903C208.898 222.903 217.19 221.017 221.276 205.079Z" fill="#FFE2A3"/>
<path d="M152.019 293.51H144.73V406.957H152.019V293.51Z" fill="#0F1636"/>
<path d="M275.859 293.51H268.57V406.957H275.859V293.51Z" fill="#0F1636"/>
<path d="M322.249 291.44H96.4375V300.144H322.249V291.44Z" fill="#2E3450"/>
<path d="M140.383 298.225H133.094V416.636H140.383V298.225Z" fill="#2E3450"/>
<path d="M287.719 298.225H280.43V416.636H287.719V298.225Z" fill="#2E3450"/>
<path d="M278.094 96.4201C278.094 107.422 269.176 116.342 258.174 116.342C247.169 116.342 238.25 107.422 238.25 96.4201C238.25 85.4181 247.169 76.4981 258.174 76.4981C269.176 76.4981 278.094 85.4181 278.094 96.4201Z" fill="#F38061"/>
<path d="M272.214 104.804C272.214 105.295 271.528 105.959 271.056 105.959H245.976C245.502 105.959 244.82 105.295 244.82 104.804V89.0654C244.82 88.5734 245.502 87.6964 245.976 87.6964H271.056C271.529 87.6964 272.214 88.5744 272.214 89.0654V104.804Z" fill="white"/>
<path d="M270.512 102.592L261.729 96.7628L270.514 90.8578C270.726 90.7138 270.785 90.4238 270.641 90.2108C270.496 89.9968 270.206 89.9408 269.993 90.0848L258.577 97.7578L256.374 96.2968C256.374 96.2968 256.372 96.2948 256.37 96.2948L247.01 90.0828C246.798 89.9418 246.507 89.9978 246.363 90.2138C246.222 90.4278 246.28 90.7168 246.495 90.8598L255.277 96.6888L246.491 102.594C246.278 102.737 246.221 103.028 246.364 103.241C246.454 103.375 246.603 103.447 246.752 103.447C246.842 103.447 246.933 103.421 247.013 103.367L256.119 97.2468L258.319 98.7078C258.397 98.7588 258.485 98.7858 258.577 98.7858C258.667 98.7858 258.758 98.7588 258.837 98.7058L260.89 97.3258L269.995 103.369C270.074 103.422 270.165 103.447 270.253 103.447C270.405 103.447 270.553 103.373 270.643 103.238C270.785 103.023 270.726 102.734 270.512 102.592Z" fill="#F38061"/>
<path d="M161.92 82.4909C168.615 78.4179 177.346 80.5439 181.419 87.2379C185.494 93.9349 183.368 102.666 176.672 106.74C169.977 110.813 161.245 108.687 157.171 101.99C153.098 95.2959 155.224 86.5649 161.92 82.4909Z" fill="#FFC670"/>
<path d="M173.689 86.6476C173.689 86.6476 171.809 85.7875 170.86 86.1425C168.042 87.1955 165.57 91.7265 165.57 91.7265C162.646 96.7595 162.365 99.7885 163.082 101.436C163.557 102.524 165.194 103.359 165.323 103.424C166.42 103.983 167.768 103.505 168.355 102.353L168.732 101.618C169.492 99.6185 168.514 98.6025 167.686 98.8215C166.386 99.0205 166.414 96.0035 167.647 93.9355C168.879 91.8675 171.313 90.7485 171.385 91.8055C171.473 93.0895 173.73 91.8266 174.318 90.6746L174.694 89.9396C175.281 88.7886 174.93 87.2815 173.834 86.7215C173.786 86.6965 173.689 86.6476 173.689 86.6476Z" fill="white"/>
<path d="M159.214 290.869H121.547V292.01H159.214V290.869Z" fill="#9C9C9C"/>
<path d="M161.499 288.586H123.832V290.869H161.499V288.586Z" fill="#C2C2C2"/>
<path d="M158.073 286.303H120.406V288.586H158.073V286.303Z" fill="white"/>
<path d="M153.135 171.596C153.135 178.131 141.302 192.736 141.302 192.736C141.302 192.736 129.469 178.131 129.469 171.596C129.469 165.06 134.767 159.763 141.302 159.763C147.838 159.763 153.135 165.06 153.135 171.596Z" fill="#F38061"/>
<path d="M147.172 171.03C147.172 174.272 144.544 176.899 141.303 176.899C138.061 176.899 135.434 174.272 135.434 171.03C135.434 167.789 138.061 165.162 141.303 165.162C144.544 165.162 147.172 167.788 147.172 171.03Z" fill="white"/>
<path d="M151.9 261.048H132.496V286.159H151.9V261.048Z" fill="#506DE4"/>
<path d="M151.345 286.515C151.345 287.364 147.193 288.052 142.071 288.052C136.949 288.052 132.797 287.364 132.797 286.515C132.797 285.665 136.949 284.977 142.071 284.977C147.192 284.977 151.345 285.665 151.345 286.515Z" fill="#506DE4"/>
<path d="M151.345 260.755C151.345 261.604 147.193 262.292 142.071 262.292C136.949 262.292 132.797 261.604 132.797 260.755C132.797 259.904 136.949 259.216 142.071 259.216C147.192 259.216 151.345 259.905 151.345 260.755Z" fill="#3F55B3"/>
<path d="M151.077 261.466L156.069 250.734C156.531 249.742 156.09 248.56 155.088 248.093C154.082 247.626 152.895 248.051 152.433 249.043L146.309 262.123C147.009 262.123 150.314 261.707 151.077 261.466Z" fill="#0F1636"/>
<path d="M155.256 252.584L156.127 250.716C155.059 250.219 153.99 249.722 152.389 248.976L151.52 250.845C153.119 251.589 154.188 252.088 155.256 252.584Z" fill="#FFBBA8"/>
<path d="M156.122 250.716L156.103 250.753C156.567 249.761 156.063 248.549 155.072 248.087C154.079 247.628 152.829 248.022 152.367 249.015L152.385 248.976C153.985 249.721 155.054 250.218 156.122 250.716Z" fill="#F38061"/>
<path d="M56.5352 113.771L84.2612 103.771L82.1132 96.837L62.8532 102.489L56.5352 113.771Z" fill="#8290CF"/>
<path d="M69.3326 104.791L60.0336 93.291C59.7486 92.938 59.2786 92.787 58.8416 92.909C58.4036 93.03 58.0786 93.401 58.0166 93.851L55.4056 112.472C55.3446 112.907 55.5386 113.339 55.9046 113.582C56.0956 113.708 56.3156 113.772 56.5356 113.772C56.7376 113.772 56.9406 113.719 57.1216 113.61L69.0316 106.489C69.3156 106.319 69.5116 106.035 69.5696 105.709C69.6266 105.382 69.5416 105.048 69.3326 104.791Z" fill="#B3C0FF"/>
<path d="M121.466 89.3971C121.324 88.9611 120.936 88.6531 120.479 88.6131L50.9234 82.5821C50.4584 82.5451 50.0314 82.7791 49.8174 83.1831C49.6024 83.5871 49.6494 84.0801 49.9374 84.4361L81.5254 123.497C81.7204 123.738 82.0044 123.889 82.3124 123.916C82.3464 123.919 82.3794 123.92 82.4124 123.92C82.6864 123.92 82.9534 123.821 83.1614 123.64L121.129 90.6091C121.475 90.3111 121.608 89.8331 121.466 89.3971Z" fill="#E3E8FF"/>
<path d="M68.1793 106.997L120.38 89.7501L57.9453 94.3411L68.1793 106.997Z" fill="#B3C0FF"/>
<path d="M50.9299 117.019C8.16886 134.024 52.7499 207.821 85.8409 180.772C92.7559 175.118 94.5809 164.513 88.1339 157.706C80.7039 149.858 63.5199 155.453 63.6979 166.818C64.0179 187.316 121.127 181.575 108.729 203.049C106.861 206.285 95.0889 215.113 92.6239 207.12C91.3229 202.9 97.6099 200.158 100.749 200.442C108.163 201.121 113.069 209.279 117.782 214.199C128.033 224.897 142.388 235.541 158.09 233.328C162.607 232.691 168.984 226.96 162.693 223.924C158.542 221.92 151.304 226.994 148.732 229.919C146.462 232.502 143.96 236.654 142.418 241.026" stroke="#ADB9F0" stroke-width="1.1414" stroke-miterlimit="10" stroke-linecap="round" stroke-linejoin="round" stroke-dasharray="3.42 3.42"/>
<path d="M444.774 115.501C434.682 110.613 422.538 114.833 417.652 124.924C412.764 135.016 416.983 147.158 427.075 152.046C427.675 152.336 428.282 152.59 428.894 152.816L428.177 162.114L443.808 152.46C445.755 151.639 447.583 150.638 449.206 149.235L449.226 149.332H449.223C451.245 147.049 452.956 145.292 454.196 142.732C459.083 132.641 454.865 120.388 444.774 115.501Z" fill="#FFC670"/>
<path d="M429.321 134.052C429.321 135.724 427.966 137.079 426.293 137.079C424.621 137.079 423.266 135.724 423.266 134.052C423.266 132.38 424.621 131.025 426.293 131.025C427.966 131.024 429.321 132.38 429.321 134.052Z" fill="white"/>
<path d="M439.593 134.052C439.593 135.724 438.238 137.079 436.566 137.079C434.894 137.079 433.539 135.724 433.539 134.052C433.539 132.38 434.894 131.025 436.566 131.025C438.238 131.025 439.593 132.38 439.593 134.052Z" fill="white"/>
<path d="M449.868 134.052C449.868 135.724 448.513 137.079 446.84 137.079C445.168 137.079 443.812 135.724 443.812 134.052C443.812 132.38 445.168 131.025 446.84 131.025C448.513 131.024 449.868 132.38 449.868 134.052Z" fill="white"/>
<path d="M356.442 82.2892C356.442 82.2892 348.118 109.383 363.516 126.111L389.923 124.326C389.923 124.326 400.325 115.811 397.05 87.5612L379.284 76.2822L356.442 82.2892Z" fill="#1E2E6E"/>
<path d="M355.536 397.022L354.773 406.153C354.773 406.153 362.071 410.78 367.426 409.489L365.999 396.184L355.536 397.022Z" fill="#F3B595"/>
<path d="M369.38 411.41C369.38 415.963 361.747 415.173 353.506 415.499C342.719 415.927 338.574 413.461 338.574 410.947C338.574 409.495 339.235 408.639 342.707 407.804C345.247 407.194 349.799 406.674 354.969 403.845C359.759 401.225 355.322 412.169 367.904 406.442C369.479 405.724 369.38 411.41 369.38 411.41Z" fill="#0F1636"/>
<path d="M345.396 240.61C345.396 240.61 341.888 279.075 345.597 328.508L354.955 401.643L367.119 403.844C367.119 403.844 369.38 384.466 369.38 336.527C369.38 302.221 386.373 265.068 381.791 234.734L345.396 240.61Z" fill="#F38061"/>
<path d="M399.46 397.022L400.223 406.153C400.223 406.153 392.925 410.78 387.57 409.489L388.997 396.184L399.46 397.022Z" fill="#F3B595"/>
<path d="M385.618 411.41C385.618 415.963 393.251 415.173 401.492 415.499C412.279 415.927 416.424 413.461 416.424 410.947C416.424 409.495 415.763 408.639 412.291 407.804C409.751 407.194 405.199 406.674 400.028 403.845C395.238 401.225 399.675 412.169 387.093 406.442C385.519 405.724 385.618 411.41 385.618 411.41Z" fill="#0F1636"/>
<path d="M409.6 240.61C409.6 240.61 413.108 279.075 409.399 328.508L400.041 401.643L387.877 403.844C387.877 403.844 385.616 384.466 385.616 336.527C385.616 302.221 368.836 262.991 373.418 232.658L409.6 240.61Z" fill="#F38061"/>
<path d="M359.415 257.648C359.415 257.648 361.101 277.458 346.406 283.691" stroke="#E85C38" stroke-width="1.1414" stroke-miterlimit="10"/>
<path d="M395.547 257.648C395.547 257.648 393.861 277.458 408.556 283.691" stroke="#E85C38" stroke-width="1.1414" stroke-miterlimit="10"/>
<path d="M405.489 183.453C405.489 183.453 406.984 192.422 411.184 200.015C411.184 200.015 425.695 193.235 428.531 183.453C412.231 150.37 404.159 148.817 389.99 146.407C378.83 144.508 370.575 144.415 362.326 146.407C352.349 148.817 343.711 148.407 327.004 183.453C328.431 194.134 344.452 198.375 344.452 198.375C349.182 189.099 349.547 184.717 349.547 184.717L338.038 265.067C339.836 265.116 401.642 282.119 420.327 263.475L405.489 183.453Z" fill="#506DE4"/>
<path d="M370.576 116.232L362.605 146.683C362.605 146.683 376.084 166.836 387.863 146.821L379.597 116.233H370.576V116.232Z" fill="#F3B595"/>
<path d="M382.198 125.626L379.596 116.232H370.575L362.781 146.138C370.541 141.453 378.68 133.073 382.198 125.626Z" fill="#F2AC88"/>
<path d="M395.488 113.949C395.488 124.665 386.8 133.353 376.084 133.353C365.368 133.353 356.68 124.665 356.68 113.949V93.403C356.68 82.687 365.368 73.999 376.084 73.999C386.801 73.999 395.488 82.687 395.488 93.403V113.949Z" fill="#F3B595"/>
<path d="M401.641 102.973C401.641 106.956 399.019 110.186 395.782 110.186C392.548 110.186 389.926 106.956 389.926 102.973C389.926 98.9888 392.549 95.7598 395.782 95.7598C399.02 95.7598 401.641 98.9888 401.641 102.973Z" fill="#F3B595"/>
<path d="M373.203 120.022C373.203 120.022 379.425 120.106 385.838 115.275C385.838 115.275 385.301 130.796 373.203 120.022Z" fill="white"/>
<path d="M363.515 102.973C363.515 106.956 360.892 110.186 357.656 110.186C354.421 110.186 351.797 106.956 351.797 102.973C351.797 98.9888 354.421 95.7598 357.656 95.7598C360.892 95.7598 363.515 98.9888 363.515 102.973Z" fill="#F3B595"/>
<path d="M369.287 100.354C369.287 100.994 368.768 101.513 368.128 101.513C367.488 101.513 366.969 100.994 366.969 100.354C366.969 99.7143 367.488 99.1953 368.128 99.1953C368.768 99.1953 369.287 99.7133 369.287 100.354Z" fill="black"/>
<path d="M383.713 100.354C383.713 100.994 383.194 101.513 382.554 101.513C381.914 101.513 381.395 100.994 381.395 100.354C381.395 99.7143 381.915 99.1953 382.554 99.1953C383.193 99.1953 383.713 99.7133 383.713 100.354Z" fill="black"/>
<path d="M375.603 101.384C375.603 101.384 375.161 105.236 373.105 111.456C373.105 111.456 373.989 112.439 377.216 113.028" stroke="#9C6A51" stroke-width="0.5707" stroke-miterlimit="10" stroke-linecap="round" stroke-linejoin="round"/>
<path d="M383.711 95.7598L387.003 98.0898" stroke="#1E2E6E" stroke-width="2.1654" stroke-miterlimit="10" stroke-linecap="round" stroke-linejoin="round"/>
<path d="M368.456 95.7598L365.164 98.0898" stroke="#1E2E6E" stroke-width="2.1654" stroke-miterlimit="10" stroke-linecap="round" stroke-linejoin="round"/>
<path d="M395.984 219.206C395.984 219.206 391.81 212.759 384.025 209.115C384.025 209.115 381.314 209.836 387.392 213.061C388.801 213.809 387.257 217.816 391.729 217.89C392.426 217.901 395.195 219.216 395.984 219.206Z" fill="#F3B595"/>
<path d="M353.317 166.35C353.317 166.35 348.138 194.542 345.621 212.118" stroke="#3B50A8" stroke-width="1.1414" stroke-miterlimit="10" stroke-linecap="round" stroke-linejoin="round"/>
<path d="M338.796 171.021C338.796 171.021 327.382 184.037 319.392 207.111C319.392 207.111 314.563 219.373 363.633 224.935L364.098 220.531C364.098 220.531 347.256 207.776 339.265 204.003L345.264 193.851L338.796 171.021Z" fill="#F3B595"/>
<path d="M327.004 183.453C328.431 194.134 344.452 198.375 344.452 198.375C346.369 194.615 347.562 191.673 348.311 189.487C350.828 175.155 353.859 161.337 357.027 147.657C348.986 149.815 340.711 154.7 327.004 183.453Z" fill="#506DE4"/>
<path d="M349.535 184.817C349.542 184.757 349.546 184.717 349.546 184.717L349.535 184.817Z" fill="#FFC670"/>
<path d="M402.691 166.35C402.691 166.35 407.87 194.542 410.387 212.118" stroke="#3B50A8" stroke-width="1.1414" stroke-miterlimit="10" stroke-linecap="round" stroke-linejoin="round"/>
<path d="M359.414 221.489C359.414 221.489 363.588 215.042 371.373 211.398C371.373 211.398 374.084 212.119 368.005 215.344C366.596 216.092 368.14 220.099 363.668 220.173C362.972 220.184 360.204 221.499 359.414 221.489Z" fill="#F3B595"/>
<path d="M394.203 235.291C394.389 236.708 393.485 237.995 392.183 238.167L371.76 240.841C370.459 241.01 369.252 240 369.067 238.583L364.364 202.668C364.178 201.251 365.083 199.964 366.384 199.794L386.807 197.119C388.109 196.949 389.315 197.958 389.5 199.376L394.203 235.291Z" fill="white"/>
<path d="M387.565 201.266C387.565 201.957 387.004 202.517 386.313 202.517C385.622 202.517 385.062 201.957 385.062 201.266C385.062 200.575 385.622 200.015 386.313 200.015C387.004 200.015 387.565 200.575 387.565 201.266Z" fill="#787878"/>
<path d="M383.638 201.141C383.67 201.455 383.443 201.735 383.129 201.767L381.425 201.942C381.112 201.974 380.832 201.746 380.8 201.433C380.768 201.119 380.995 200.839 381.309 200.807L383.013 200.633C383.326 200.599 383.606 200.827 383.638 201.141Z" fill="#787878"/>
<path d="M418.756 171.021C418.756 171.021 430.17 184.037 438.16 207.111C438.16 207.111 444.283 220.388 393.751 222.471L393.453 218.104C393.453 218.104 410.295 207.775 418.286 204.002L412.287 193.85L418.756 171.021Z" fill="#F3B595"/>
<path d="M370.656 222.911C370.656 224.008 380.001 223.912 380.004 224.933C380.01 227.14 371.377 225.501 370.041 226.456C369.283 226.998 376.456 229.239 374.144 229.7C371.231 230.28 359.311 225.878 359.415 221.489C359.474 218.98 372.718 215.02 375.072 215.86C377.765 216.82 367.698 218.342 368.647 218.836C369.981 219.533 379.034 218.393 379.328 219.719C379.658 221.221 370.656 221.161 370.656 222.911Z" fill="#F3B595"/>
<path d="M384.743 220.628C384.743 221.725 375.398 221.629 375.395 222.65C375.389 224.857 384.023 223.218 385.358 224.172C386.116 224.714 378.943 226.955 381.255 227.416C384.168 227.996 396.088 223.594 395.984 219.205C395.925 216.696 384.57 211.842 382.217 212.681C379.524 213.641 387.701 216.058 386.753 216.552C385.419 217.249 376.365 216.109 376.072 217.435C375.741 218.938 384.743 218.878 384.743 220.628Z" fill="#F3B595"/>
<path d="M413.981 159.119C409.752 169.616 407.804 181.097 407.836 192.33C408.681 194.79 409.777 197.476 411.181 200.015C411.181 200.015 425.692 193.235 428.528 183.453C422.891 172.015 418.241 164.357 413.981 159.119Z" fill="#506DE4"/>
<path d="M389.923 79.0961C389.975 78.9601 386.631 75.0151 386.435 74.8071C384.55 72.8031 382.501 70.7811 379.896 69.7591C373.859 67.3901 366.308 69.6791 361.749 73.9911C359.154 76.4451 356.881 80.0791 356.08 83.6001C355.261 87.1981 354.862 92.8531 356.177 96.3801C357.283 99.3461 359.948 99.4141 362.634 98.6081C369.964 96.4101 375.988 90.2911 381.646 85.4531C384.221 83.2501 386.914 80.7241 389.923 79.0961Z" fill="#1E2E6E"/>
<path d="M385.84 78.2791C385.84 78.2791 402.053 75.0501 395.49 96.9251C395.49 96.9251 391.691 95.6461 385.84 78.2791Z" fill="#1E2E6E"/>
<path d="M357.461 103.231C356.705 102.144 355.608 102.179 355.241 102.226C355.404 101.93 355.887 101.491 356.348 101.246C356.604 101.109 356.746 100.657 356.662 100.236C356.578 99.8147 356.304 99.5837 356.046 99.7197C355.612 99.9497 354.197 100.82 354.207 102.364C354.216 103.796 355.406 104.551 356.3 104.994C356.348 105.017 356.395 105.028 356.442 105.028C356.634 105.028 356.809 104.836 356.887 104.539C357.104 104.919 357.216 105.53 357.211 106.25C357.209 106.693 357.426 107.101 357.697 107.101C357.697 107.101 357.699 107.101 357.701 107.101C357.97 107.101 358.188 106.705 358.19 106.264C358.197 104.986 357.953 103.937 357.461 103.231Z" fill="#9C6A51"/>
<path d="M396.026 103.231C396.782 102.144 397.879 102.179 398.246 102.226C398.083 101.93 397.599 101.491 397.139 101.246C396.883 101.109 396.741 100.657 396.825 100.236C396.909 99.8147 397.183 99.5837 397.441 99.7197C397.875 99.9497 399.29 100.82 399.28 102.364C399.271 103.796 398.081 104.551 397.187 104.994C397.139 105.017 397.092 105.028 397.045 105.028C396.853 105.028 396.678 104.836 396.6 104.539C396.383 104.919 396.271 105.53 396.276 106.25C396.278 106.693 396.061 107.101 395.79 107.101C395.79 107.101 395.788 107.101 395.786 107.101C395.517 107.101 395.299 106.705 395.297 106.264C395.29 104.986 395.534 103.937 396.026 103.231Z" fill="#9C6A51"/>
<path d="M249.386 290.481C249.386 291.414 248.2 292.01 247.168 292.01H173.627C172.594 292.01 171.77 291.414 171.77 290.481V247.365C171.77 246.433 172.594 245.211 173.627 245.211H247.168C248.2 245.211 249.386 246.433 249.386 247.365V290.481Z" fill="white"/>
<path d="M214.325 270.761C214.325 274.94 210.937 278.327 206.758 278.327C202.579 278.327 199.191 274.94 199.191 270.761C199.191 266.582 202.579 263.194 206.758 263.194C210.937 263.193 214.325 266.582 214.325 270.761Z" fill="#B3B3B3"/>
<path d="M219.003 266.137C219.003 268.816 216.832 270.986 214.154 270.986C211.477 270.986 209.305 268.816 209.305 266.137C209.305 263.459 211.476 261.288 214.154 261.288C216.831 261.288 219.003 263.458 219.003 266.137Z" fill="#CCCCCC"/>
<path d="M90.1497 338.53C91.2027 343.143 104.731 353.196 106.583 357.022C108.208 360.377 98.0797 357.614 100.134 360.163C105.643 367.007 114.261 384.718 120.549 383.283C128.559 381.455 126.805 364.659 129.215 359.59C130.534 356.815 120.406 361.178 120.962 357.599C121.352 355.102 132.634 344.831 132.615 342.062C132.597 339.564 132.406 336.975 132.03 334.333C131.792 332.639 120.622 336.658 120.228 334.93C119.775 332.942 130.088 325.277 129.473 323.421C128.435 320.292 127.181 317.366 125.761 314.694C124.329 312.003 115.933 321.307 114.214 319.189C111.305 315.602 116.364 302.168 113.024 300.644C110.053 299.289 105.502 297.867 102.558 298.538C101.077 298.876 104.414 312.644 102.638 314.18C102.075 314.668 96.3507 302.646 95.8107 303.177C94.1777 304.785 92.7117 306.506 91.7687 307.828C89.4537 311.075 101.625 328.92 100.776 333.909C100.172 337.46 88.4707 324.577 88.7187 328.659C88.9137 331.855 89.3837 335.169 90.1497 338.53Z" fill="#FFE2A3"/>
<path d="M106.953 322.319C106.953 322.319 112.797 375.923 125.419 391.869" stroke="#0F1636" stroke-width="0.7368" stroke-miterlimit="10"/>
<path d="M157.012 355.328C155.833 358.449 144.895 363.973 143.186 366.452C141.689 368.624 149.471 367.834 147.723 369.392C143.032 373.574 135.098 385.034 130.537 383.313C124.726 381.119 127.469 369.52 126.107 365.685C125.362 363.583 132.533 367.801 132.425 365.224C132.348 363.425 124.821 354.927 125.073 352.983C125.3 351.23 125.663 349.433 126.168 347.62C126.491 346.457 134.469 350.551 134.911 349.379C135.418 348.035 128.39 341.479 129.008 340.244C130.048 338.164 131.232 336.25 132.519 334.536C133.816 332.808 139.275 340.298 140.738 339.006C143.21 336.816 140.591 326.803 143.21 326.113C145.538 325.499 149.05 325.017 151.187 325.823C152.261 326.229 148.598 335.522 149.79 336.802C150.167 337.208 155.46 329.413 155.816 329.848C156.896 331.163 157.84 332.539 158.43 333.576C159.877 336.12 149.284 347.272 149.49 350.873C149.636 353.436 159.455 345.716 158.922 348.555C158.504 350.78 157.87 353.053 157.012 355.328Z" fill="#54D9C8"/>
<path d="M145.877 342.029C145.877 342.029 136.938 379.021 126.172 388.79" stroke="#0F1636" stroke-width="0.7368" stroke-miterlimit="10"/>
<path d="M114.945 414.794C123.226 414.846 131.401 414.969 139.615 414.867C143.712 410.652 146.315 404.378 146.315 397.364C146.315 391.504 144.498 386.16 141.511 382.101C132.336 381.787 123.123 381.343 113.935 381.053C110.464 385.215 108.312 390.986 108.312 397.363C108.314 404.338 110.887 410.582 114.945 414.794Z" fill="#F38061"/>
<path d="M110.645 381.863C110.645 380.673 112.278 379.653 114.293 379.653H140.74C142.755 379.653 144.387 380.673 144.387 381.863C144.387 383.052 142.754 384.073 140.74 384.073H114.293C112.278 384.073 110.645 383.051 110.645 381.863Z" fill="#D9694C"/>
<path d="M112.527 414.649C112.527 413.615 113.954 412.808 115.714 412.808H138.82C140.58 412.808 142.007 413.615 142.007 414.649C142.007 415.684 140.58 416.492 138.82 416.492H115.714C113.954 416.492 112.527 415.684 112.527 414.649Z" fill="#D9694C"/>
<path d="M279.691 254.166C280.198 256.388 286.715 261.23 287.607 263.074C288.39 264.69 283.511 263.359 284.5 264.587C287.154 267.884 291.305 276.415 294.334 275.724C298.192 274.844 297.347 266.753 298.508 264.312C299.143 262.975 294.265 265.077 294.533 263.353C294.721 262.15 300.156 257.203 300.146 255.869C300.137 254.666 300.045 253.419 299.864 252.146C299.749 251.33 294.369 253.266 294.179 252.434C293.961 251.476 298.929 247.784 298.632 246.89C298.132 245.382 297.528 243.973 296.844 242.686C296.154 241.39 292.11 245.871 291.282 244.851C289.881 243.123 292.318 236.652 290.709 235.918C289.278 235.265 287.086 234.58 285.668 234.904C284.954 235.067 286.562 241.699 285.707 242.438C285.436 242.673 282.679 236.882 282.418 237.138C281.632 237.912 280.925 238.741 280.471 239.378C279.356 240.942 285.219 249.538 284.81 251.941C284.519 253.651 278.883 247.446 279.002 249.412C279.096 250.95 279.322 252.547 279.691 254.166Z" fill="#506DE4"/>
<path d="M287.785 246.357C287.785 246.357 290.6 272.178 296.68 279.859" stroke="#0F1636" stroke-width="0.3549" stroke-miterlimit="10"/>
<path d="M311.9 262.257C311.332 263.761 306.063 266.421 305.24 267.616C304.519 268.662 308.267 268.281 307.425 269.032C305.166 271.046 301.344 276.567 299.147 275.738C296.348 274.681 297.669 269.094 297.013 267.247C296.654 266.235 300.108 268.266 300.056 267.025C300.019 266.158 296.393 262.065 296.515 261.129C296.624 260.285 296.799 259.419 297.042 258.546C297.198 257.986 301.04 259.958 301.253 259.393C301.497 258.746 298.112 255.588 298.409 254.993C298.91 253.991 299.48 253.069 300.1 252.243C300.725 251.411 303.355 255.019 304.059 254.396C305.25 253.341 303.988 248.518 305.25 248.185C306.371 247.889 308.063 247.657 309.092 248.045C309.61 248.24 307.845 252.717 308.419 253.334C308.601 253.53 311.15 249.775 311.322 249.984C311.842 250.617 312.297 251.28 312.581 251.78C313.278 253.005 308.175 258.377 308.275 260.112C308.345 261.347 313.075 257.628 312.818 258.996C312.618 260.066 312.313 261.161 311.9 262.257Z" fill="#FFE2A3"/>
<path d="M306.535 255.851C306.535 255.851 302.229 273.67 297.043 278.375" stroke="#0F1636" stroke-width="0.3549" stroke-miterlimit="10"/>
<path d="M291.635 290.902C295.624 290.927 299.561 290.986 303.518 290.937C305.492 288.907 306.746 285.884 306.746 282.506C306.746 279.683 305.871 277.109 304.432 275.154C300.013 275.003 295.575 274.789 291.149 274.649C289.477 276.654 288.441 279.434 288.441 282.506C288.441 285.865 289.681 288.872 291.635 290.902Z" fill="#F38061"/>
<path d="M289.566 275.039C289.566 274.466 290.352 273.974 291.323 273.974H304.062C305.032 273.974 305.819 274.465 305.819 275.039C305.819 275.612 305.033 276.104 304.062 276.104H291.323C290.352 276.104 289.566 275.612 289.566 275.039Z" fill="#D9694C"/>
<path d="M290.473 290.832C290.473 290.334 291.161 289.945 292.008 289.945H303.138C303.986 289.945 304.673 290.334 304.673 290.832C304.673 291.33 303.985 291.72 303.138 291.72H292.008C291.16 291.719 290.473 291.33 290.473 290.832Z" fill="#D9694C"/>
</g>
<defs>
<clipPath id="clip0_2202_29823">
<rect width="500" height="437" fill="white"/>
</clipPath>
</defs>
</svg>
