<svg width="40" height="40" viewBox="0 0 40 40" fill="none" xmlns="http://www.w3.org/2000/svg">
<path d="M35.0063 30.8379V33.3389C35.0063 34.2593 34.2593 35.0063 33.3389 35.0063H30.0042C29.0838 35.0063 28.3368 34.2593 28.3368 33.3389V30.8379" stroke="#0064D9" stroke-width="3" stroke-linecap="round" stroke-linejoin="round"/>
<path d="M11.6632 30.8379V33.3389C11.6632 34.2593 10.9162 35.0063 9.99584 35.0063H6.66112C5.74074 35.0063 4.99376 34.2593 4.99376 33.3389V30.8379" stroke="#0064D9" stroke-width="3" stroke-linecap="round" stroke-linejoin="round"/>
<path fill-rule="evenodd" clip-rule="evenodd" d="M4.99376 30.8379V22.9063C4.99376 21.5791 5.52065 20.3069 6.45937 19.3698L8.32848 17.499H31.6715L33.5406 19.3681C34.4794 20.3069 35.0063 21.5791 35.0063 22.9063V30.8379H4.99376Z" stroke="#0064D9" stroke-width="3" stroke-linecap="round" stroke-linejoin="round"/>
<path d="M35.0063 24.1682L30.0042 24.5851" stroke="#0064D9" stroke-width="3" stroke-linecap="round" stroke-linejoin="round"/>
<path d="M9.99584 24.5851L4.99376 24.1682" stroke="#0064D9" stroke-width="3" stroke-linecap="round" stroke-linejoin="round"/>
<path d="M13.3306 30.837L14.9979 25.835H25.0021L26.6695 30.837" stroke="#0064D9" stroke-width="3" stroke-linecap="round" stroke-linejoin="round"/>
<path d="M35.0063 15.8309L31.6715 16.6646" stroke="#0064D9" stroke-width="3" stroke-linecap="round" stroke-linejoin="round"/>
<path d="M8.32848 16.6646L4.99376 15.8309" stroke="#0064D9" stroke-width="3" stroke-linecap="round" stroke-linejoin="round"/>
<path d="M8.32848 17.4986V16.6549L9.72239 11.4244C10.2076 9.59865 11.8616 8.32812 13.7491 8.32812H26.3943C28.3235 8.32812 30.0008 9.65201 30.4494 11.5295L31.6715 16.6549V17.4986" stroke="#0064D9" stroke-width="3" stroke-linecap="round" stroke-linejoin="round"/>
</svg>
