<svg width="440" height="66" viewBox="0 0 440 66" fill="none" xmlns="http://www.w3.org/2000/svg">
<path d="M426.018 53.059C427.214 54.4354 427.068 56.5199 425.692 57.7143C424.316 58.9108 422.231 58.765 421.037 57.3888C419.84 56.0124 419.986 53.9279 421.362 52.7335C422.739 51.537 424.823 51.6827 426.018 53.059" stroke="#FFD93D" stroke-width="3" stroke-linecap="round" stroke-linejoin="round"/>
<path d="M403.156 51.46C404.353 52.8364 404.207 54.9209 402.831 56.1153C401.455 57.3118 399.37 57.166 398.176 55.7898C396.981 54.4135 397.125 52.3289 398.501 51.1345C399.877 49.9401 401.96 50.0836 403.156 51.46" stroke="#FFD93D" stroke-width="3" stroke-linecap="round" stroke-linejoin="round"/>
<path d="M410.006 22.083L418.319 22.6643C419.466 22.7445 420.332 23.7407 420.252 24.8879L418.799 45.6705L391.781 43.7813" stroke="#FFD93D" stroke-width="3" stroke-linecap="round" stroke-linejoin="round"/>
<path d="M397.374 53.3951L393.217 53.1044C392.07 53.0242 391.204 52.028 391.284 50.8808L392.071 39.625" stroke="#FFD93D" stroke-width="3" stroke-linecap="round" stroke-linejoin="round"/>
<path d="M419.961 29.0444L428.945 29.6727C429.795 29.7321 430.524 30.3031 430.782 31.1148L433.537 39.6903C433.698 40.1944 433.763 40.7253 433.726 41.2531L432.862 53.6146C432.782 54.7618 431.785 55.6278 430.638 55.5476L426.833 55.2815" stroke="#FFD93D" stroke-width="3" stroke-linecap="round" stroke-linejoin="round"/>
<path d="M420.234 55.0017L403.962 53.8638" stroke="#FFD93D" stroke-width="3" stroke-linecap="round" stroke-linejoin="round"/>
<path d="M433.491 44.6097L425.178 44.0284L425.76 35.7153L432.41 36.1804" stroke="#FFD93D" stroke-width="3" stroke-linecap="round" stroke-linejoin="round"/>
<path d="M393.379 20.9205L403.771 21.6471" stroke="#FFD93D" stroke-width="3" stroke-linecap="round" stroke-linejoin="round"/>
<path d="M392.944 27.1553L399.179 27.5913" stroke="#FFD93D" stroke-width="3" stroke-linecap="round" stroke-linejoin="round"/>
<path d="M394.586 33.5355L392.507 33.3902" stroke="#FFD93D" stroke-width="3" stroke-linecap="round" stroke-linejoin="round"/>
<path d="M2 42.9998C16.8333 35.9998 56 24.0998 94 32.4998C141.5 42.9998 162.5 53.9998 202.5 50.4998C213.058 49.5759 265.5 38.9998 267 19.9998C268.973 -4.98998 241.033 -3.2296 238 17.9998C237 24.9998 233 43.9998 268.5 48.4998C304 52.9998 316 23.9998 379.5 39.4998" stroke="#FFD93D" stroke-width="3" stroke-linecap="round" stroke-dasharray="13 13"/>
</svg>
