<svg width="40" height="40" viewBox="0 0 40 40" fill="none" xmlns="http://www.w3.org/2000/svg">
<path fill-rule="evenodd" clip-rule="evenodd" d="M15.1117 22.6166L12.0467 18.5416L14.2967 17.7866C14.705 17.6499 15.1534 17.7133 15.5067 17.9583L17.46 19.3066L22.1584 17.2383L17.25 11.0199L21.2467 10.1699L27.7017 15.2249L34.585 12.4816C36.27 11.8099 38.13 12.9333 38.3184 14.7366V14.7366C38.445 15.9333 37.7734 17.0733 36.6634 17.5433L24.325 22.7666C24.0084 22.8999 23.6717 22.9733 23.3284 22.9816L16.2384 23.1583C15.7967 23.1733 15.3767 22.9699 15.1117 22.6166Z" stroke="#0064D9" stroke-width="3" stroke-linecap="round" stroke-linejoin="round"/>
<path d="M33.3917 12.9995C30.9833 8.26786 26.08 5.01953 20.4083 5.01953C12.3583 5.01953 5.83334 11.5479 5.83334 19.6029C5.83334 27.6562 12.3583 34.1862 20.4083 34.1862C28.4583 34.1862 34.9833 27.6579 34.9833 19.6029C34.9833 19.1679 34.955 18.7412 34.9183 18.3162" stroke="#0064D9" stroke-width="3" stroke-linecap="round" stroke-linejoin="round"/>
<path d="M5.86668 20.5811C2.76001 22.8594 1.07834 25.3877 1.82834 27.1544C2.89168 29.7877 8.89168 29.8461 15.23 27.2844" stroke="#0064D9" stroke-width="3" stroke-linecap="round" stroke-linejoin="round"/>
</svg>
