<svg width="528" height="63" viewBox="0 0 528 63" fill="none" xmlns="http://www.w3.org/2000/svg">
<path d="M2.23076 11.6897C1.50713 11.2864 0.593575 11.5461 0.190273 12.2697C-0.21303 12.9934 0.0466465 13.9069 0.770275 14.3102L2.23076 11.6897ZM522.719 62.9734C523.533 63.1286 524.319 62.5949 524.474 61.7811L527.005 48.5204C527.16 47.7067 526.626 46.9211 525.812 46.7658C524.999 46.6106 524.213 47.1443 524.058 47.9581L521.808 59.7454L510.021 57.4959C509.207 57.3406 508.422 57.8744 508.266 58.6881C508.111 59.5018 508.645 60.2874 509.459 60.4427L522.719 62.9734ZM6.63743 17.4716C7.37226 17.8541 8.27805 17.5684 8.66056 16.8336C9.04306 16.0988 8.75745 15.193 8.02261 14.8105L6.63743 17.4716ZM19.6787 20.4645C18.9234 20.1242 18.0353 20.4607 17.695 21.2161C17.3548 21.9714 17.6913 22.8595 18.4466 23.1998L19.6787 20.4645ZM30.667 28.288C31.4406 28.5844 32.308 28.1976 32.6043 27.424C32.9007 26.6504 32.5139 25.783 31.7403 25.4866L30.667 28.288ZM44.0146 29.7948C43.2256 29.5425 42.3814 29.9777 42.1292 30.7668C41.8769 31.5559 42.3121 32.4001 43.1012 32.6523L44.0146 29.7948ZM55.741 36.31C56.5428 36.5183 57.3617 36.0373 57.5701 35.2355C57.7784 34.4337 57.2973 33.6148 56.4956 33.4064L55.741 36.31ZM69.1964 36.3452C68.3846 36.1799 67.5925 36.7039 67.4272 37.5157C67.2619 38.3275 67.786 39.1195 68.5977 39.2849L69.1964 36.3452ZM81.5725 41.5826C82.3916 41.7065 83.156 41.1429 83.2799 40.3238C83.4038 39.5047 82.8402 38.7402 82.0211 38.6163L81.5725 41.5826ZM94.9423 40.2522C94.1182 40.1676 93.3815 40.7671 93.297 41.5912C93.2124 42.4153 93.8119 43.152 94.636 43.2365L94.9423 40.2522ZM107.765 44.285C108.592 44.3327 109.301 43.7009 109.349 42.8739C109.397 42.0468 108.765 41.3377 107.938 41.29L107.765 44.285ZM120.968 41.7693C120.14 41.7556 119.458 42.4161 119.444 43.2444C119.43 44.0727 120.091 44.7552 120.919 44.7689L120.968 41.7693ZM134.079 44.7338C134.907 44.7162 135.564 44.0306 135.546 43.2023C135.529 42.3741 134.843 41.7169 134.015 41.7345L134.079 44.7338ZM147.063 41.2308C146.236 41.2766 145.602 41.9843 145.648 42.8115C145.694 43.6386 146.402 44.272 147.229 44.2262L147.063 41.2308ZM160.341 43.2939C161.167 43.2227 161.778 42.4959 161.707 41.6706C161.636 40.8452 160.909 40.2338 160.084 40.305L160.341 43.2939ZM173.083 39.0018C172.26 39.0954 171.668 39.8386 171.762 40.6617C171.855 41.4848 172.599 42.0762 173.422 41.9826L173.083 39.0018ZM186.462 40.3375C187.283 40.2242 187.856 39.4671 187.743 38.6465C187.629 37.8258 186.872 37.2524 186.052 37.3657L186.462 40.3375ZM198.983 35.4406C198.164 35.5709 197.607 36.3397 197.737 37.1578C197.867 37.9759 198.636 38.5336 199.454 38.4033L198.983 35.4406ZM212.406 36.2215C213.222 36.077 213.766 35.2985 213.621 34.4828C213.477 33.6671 212.698 33.123 211.883 33.2675L212.406 36.2215ZM224.749 30.888C223.936 31.0444 223.403 31.8306 223.559 32.6441C223.715 33.4577 224.502 33.9905 225.315 33.8341L224.749 30.888ZM238.182 31.2823C238.994 31.1167 239.518 30.3244 239.352 29.5127C239.186 28.701 238.394 28.1772 237.583 28.3428L238.182 31.2823ZM250.41 25.6669C249.6 25.8392 249.083 26.6358 249.255 27.4461C249.427 28.2564 250.224 28.7736 251.034 28.6012L250.41 25.6669ZM263.856 25.835C264.666 25.6584 265.179 24.8591 265.002 24.0497C264.825 23.2404 264.026 22.7274 263.217 22.904L263.856 25.835ZM276 20.0969C275.191 20.2752 274.679 21.0756 274.858 21.8846C275.036 22.6936 275.836 23.2049 276.645 23.0266L276 20.0969ZM289.454 20.2075C290.263 20.0302 290.775 19.2304 290.598 18.4212C290.421 17.612 289.621 17.0997 288.812 17.2771L289.454 20.2075ZM301.64 14.4929C300.83 14.6664 300.314 15.4638 300.488 16.2738C300.661 17.0839 301.459 17.5999 302.269 17.4263L301.64 14.4929ZM315.077 14.7343C315.888 14.5676 316.411 13.7747 316.244 12.9632C316.077 12.1517 315.284 11.629 314.473 11.7957L315.077 14.7343ZM327.312 9.23718C326.499 9.39369 325.966 10.18 326.123 10.9935C326.279 11.8071 327.065 12.3397 327.879 12.1832L327.312 9.23718ZM340.774 9.81186C341.59 9.66938 342.136 8.89231 341.993 8.07623C341.851 7.26015 341.074 6.71409 340.258 6.85657L340.774 9.81186ZM353.241 4.73316C352.422 4.85733 351.859 5.62197 351.983 6.44104C352.107 7.26011 352.872 7.82344 353.691 7.69928L353.241 4.73316ZM366.628 5.91791C367.451 5.81696 368.035 5.06857 367.934 4.24631C367.834 3.42406 367.085 2.83932 366.263 2.94026L366.628 5.91791ZM379.326 1.5606C378.5 1.63266 377.89 2.3601 377.962 3.18539C378.034 4.01067 378.761 4.62129 379.587 4.54923L379.326 1.5606ZM392.573 3.68637C393.401 3.64977 394.042 2.94919 394.006 2.12157C393.969 1.29395 393.268 0.6527 392.441 0.689295L392.573 3.68637ZM405.647 0.439448C404.819 0.432849 404.142 1.09905 404.136 1.92745C404.129 2.75585 404.795 3.43275 405.624 3.43935L405.647 0.439448ZM418.635 3.93721C419.462 3.99544 420.179 3.37273 420.237 2.54635C420.295 1.71997 419.673 1.00286 418.846 0.944633L418.635 3.93721ZM431.984 2.34469C431.164 2.22588 430.403 2.7942 430.284 3.61406C430.165 4.43392 430.734 5.19487 431.554 5.31368L431.984 2.34469ZM444.295 7.70492C445.102 7.89302 445.908 7.39148 446.096 6.58469C446.285 5.7779 445.783 4.97138 444.976 4.78328L444.295 7.70492ZM457.704 8.39124C456.918 8.12666 456.068 8.54858 455.803 9.33362C455.538 10.1187 455.96 10.9696 456.745 11.2341L457.704 8.39124ZM468.764 15.9897C469.517 16.3348 470.408 16.004 470.753 15.2509C471.098 14.4977 470.767 13.6074 470.014 13.2624L468.764 15.9897ZM481.741 19.4291C481.03 19.0039 480.109 19.2356 479.684 19.9466C479.259 20.6576 479.49 21.5786 480.201 22.0038L481.741 19.4291ZM490.925 29.2427C491.585 29.7428 492.526 29.6129 493.026 28.9525C493.526 28.2921 493.396 27.3513 492.736 26.8511L490.925 29.2427ZM502.897 35.4284C502.293 34.862 501.344 34.8929 500.777 35.4975C500.211 36.102 500.242 37.0513 500.846 37.6177L502.897 35.4284ZM509.821 46.884C510.369 47.5055 511.316 47.5653 511.938 47.0176C512.559 46.4698 512.619 45.522 512.071 44.9004L509.821 46.884ZM520.33 55.1394C519.838 54.4734 518.898 54.3328 518.232 54.8254C517.566 55.318 517.426 56.2573 517.918 56.9234L520.33 55.1394ZM0.770275 14.3102C2.72164 15.3978 4.67742 16.4513 6.63743 17.4716L8.02261 14.8105C6.08787 13.8034 4.15719 12.7634 2.23076 11.6897L0.770275 14.3102ZM18.4466 23.1998C22.5045 25.0277 26.5785 26.7216 30.667 28.288L31.7403 25.4866C27.7049 23.9405 23.6838 22.2686 19.6787 20.4645L18.4466 23.1998ZM43.1012 32.6523C47.3019 33.9951 51.5158 35.2119 55.741 36.31L56.4956 33.4064C52.3226 32.322 48.1618 31.1204 44.0146 29.7948L43.1012 32.6523ZM68.5977 39.2849C72.9134 40.1637 77.2389 40.9272 81.5725 41.5826L82.0211 38.6163C77.7363 37.9683 73.4609 37.2136 69.1964 36.3452L68.5977 39.2849ZM94.636 43.2365C99.0067 43.6851 103.384 44.0321 107.765 44.285L107.938 41.29C103.599 41.0396 99.2669 40.6961 94.9423 40.2522L94.636 43.2365ZM120.919 44.7689C125.304 44.8411 129.691 44.8269 134.079 44.7338L134.015 41.7345C129.663 41.8268 125.314 41.8408 120.968 41.7693L120.919 44.7689ZM147.229 44.2262C151.601 43.9838 155.973 43.6706 160.341 43.2939L160.084 40.305C155.744 40.6792 151.403 40.9902 147.063 41.2308L147.229 44.2262ZM173.422 41.9826C177.773 41.4876 182.121 40.9368 186.462 40.3375L186.052 37.3657C181.733 37.9619 177.409 38.5097 173.083 39.0018L173.422 41.9826ZM199.454 38.4033C203.78 37.7148 208.098 36.985 212.406 36.2215L211.883 33.2675C207.59 34.0283 203.289 34.7551 198.983 35.4406L199.454 38.4033ZM225.315 33.8341C229.616 33.0077 233.906 32.1546 238.182 31.2823L237.583 28.3428C233.316 29.2132 229.037 30.064 224.749 30.888L225.315 33.8341ZM251.034 28.6012C255.324 27.6888 259.599 26.7642 263.856 25.835L263.217 22.904C258.962 23.8324 254.693 24.7558 250.41 25.6669L251.034 28.6012ZM276.645 23.0266C280.935 22.081 285.205 21.1388 289.454 20.2075L288.812 17.2771C284.56 18.2089 280.288 19.1516 276 20.0969L276.645 23.0266ZM302.269 17.4263C306.563 16.5063 310.833 15.6062 315.077 14.7343L314.473 11.7957C310.219 12.6696 305.941 13.5715 301.64 14.4929L302.269 17.4263ZM327.879 12.1832C332.208 11.3503 336.507 10.5568 340.774 9.81186L340.258 6.85657C335.972 7.60482 331.656 8.4015 327.312 9.23718L327.879 12.1832ZM353.691 7.69928C358.042 7.03973 362.355 6.44253 366.628 5.91791L366.263 2.94026C361.959 3.46867 357.617 4.06981 353.241 4.73316L353.691 7.69928ZM379.587 4.54923C383.963 4.16711 388.293 3.87563 392.573 3.68637L392.441 0.689295C388.114 0.880618 383.741 1.17508 379.326 1.5606L379.587 4.54923ZM405.624 3.43935C410.02 3.47437 414.358 3.63587 418.635 3.93721L418.846 0.944633C414.503 0.638579 410.102 0.474928 405.647 0.439448L405.624 3.43935ZM431.554 5.31368C435.872 5.93947 440.12 6.73155 444.295 7.70492L444.976 4.78328C440.714 3.78943 436.381 2.98195 431.984 2.34469L431.554 5.31368ZM456.745 11.2341C460.831 12.6111 464.839 14.191 468.764 15.9897L470.014 13.2624C465.99 11.4186 461.885 9.80051 457.704 8.39124L456.745 11.2341ZM480.201 22.0038C483.856 24.1893 487.432 26.5972 490.925 29.2427L492.736 26.8511C489.156 24.1395 485.489 21.6705 481.741 19.4291L480.201 22.0038ZM500.846 37.6177C503.91 40.4881 506.903 43.5729 509.821 46.884L512.071 44.9004C509.092 41.5194 506.033 38.3658 502.897 35.4284L500.846 37.6177ZM517.918 56.9234C519.216 58.6774 520.496 60.4835 521.76 62.343L524.241 60.6569C522.956 58.765 521.652 56.9262 520.33 55.1394L517.918 56.9234Z" fill="#FFD93D"/>
</svg>
