<svg width="34" height="34" viewBox="0 0 34 34" fill="none" xmlns="http://www.w3.org/2000/svg">
<path fill-rule="evenodd" clip-rule="evenodd" d="M14.812 18.2288C16.7555 18.2288 18.3311 16.6532 18.3311 14.7097C18.3311 12.7662 16.7555 11.1907 14.812 11.1907C12.8685 11.1907 11.293 12.7662 11.293 14.7097C11.293 16.6532 12.8685 18.2288 14.812 18.2288Z" stroke="#0064D9" stroke-width="2" stroke-linecap="round" stroke-linejoin="round"/>
<path d="M25.3437 15.4752C25.6542 10.6197 22.6074 6.18034 17.965 4.72403C13.3227 3.26772 8.28615 5.1713 5.76757 9.3341C3.24899 13.4969 3.90014 18.8417 7.34453 22.278L14.8092 29.7554" stroke="#0064D9" stroke-width="2" stroke-linecap="round" stroke-linejoin="round"/>
<path d="M24.7946 19.8345V24.0862" stroke="#0064D9" stroke-width="2" stroke-linecap="round" stroke-linejoin="round"/>
<path d="M29.7528 25.1889C29.7528 24.5799 29.2592 24.0863 28.6502 24.0863H20.9347C20.3257 24.0863 19.832 24.5799 19.832 25.1889" stroke="#0064D9" stroke-width="2" stroke-linecap="round" stroke-linejoin="round"/>
<path fill-rule="evenodd" clip-rule="evenodd" d="M21.2493 29.7553H28.3356C29.1183 29.7553 29.7528 29.1207 29.7528 28.338V23.2855C29.7527 22.7112 29.6365 22.1428 29.4113 21.6145L29.0173 20.6947C28.7944 20.1732 28.282 19.8348 27.7148 19.8345H21.87C21.3024 19.8342 20.7893 20.1727 20.5662 20.6947L20.1736 21.6131C19.9483 22.1414 19.8321 22.7098 19.832 23.2841V28.338C19.832 29.1207 20.4666 29.7553 21.2493 29.7553Z" stroke="#0064D9" stroke-width="2" stroke-linecap="round" stroke-linejoin="round"/>
</svg>
