<svg width="34" height="34" viewBox="0 0 34 34" fill="none" xmlns="http://www.w3.org/2000/svg">
<path d="M26.497 25.9194C27.374 26.7963 27.374 28.2172 26.497 29.0927C25.6201 29.9697 24.1992 29.9697 23.3237 29.0927C22.4468 28.2158 22.4468 26.7949 23.3237 25.9194C24.2006 25.0425 25.6215 25.0425 26.497 25.9194" stroke="#0064D9" stroke-width="2" stroke-linecap="round" stroke-linejoin="round"/>
<path d="M10.9145 25.9196C11.7914 26.7965 11.7914 28.2174 10.9145 29.0929C10.0376 29.9699 8.61664 29.9699 7.74114 29.0929C6.86564 28.216 6.86422 26.7951 7.74114 25.9196C8.61806 25.0441 10.0376 25.0427 10.9145 25.9196" stroke="#0064D9" stroke-width="2" stroke-linecap="round" stroke-linejoin="round"/>
<path d="M14.1673 5.66675H19.834C20.616 5.66675 21.2507 6.30141 21.2507 7.08341V21.2501H2.83398" stroke="#0064D9" stroke-width="2" stroke-linecap="round" stroke-linejoin="round"/>
<path d="M7.08398 27.5061H4.25065C3.46865 27.5061 2.83398 26.8714 2.83398 26.0894V18.4167" stroke="#0064D9" stroke-width="2" stroke-linecap="round" stroke-linejoin="round"/>
<path d="M21.25 9.91699H27.3743C27.9537 9.91699 28.475 10.2697 28.6889 10.8081L30.9641 16.4946C31.0973 16.8289 31.1667 17.1859 31.1667 17.5457V25.9721C31.1667 26.7541 30.532 27.3887 29.75 27.3887H27.1561" stroke="#0064D9" stroke-width="2" stroke-linecap="round" stroke-linejoin="round"/>
<path d="M22.6667 27.5118H11.5742" stroke="#0064D9" stroke-width="2" stroke-linecap="round" stroke-linejoin="round"/>
<path d="M31.1667 19.8337H25.5V14.167H30.0333" stroke="#0064D9" stroke-width="2" stroke-linecap="round" stroke-linejoin="round"/>
<path d="M2.83398 5.66683H9.91732" stroke="#0064D9" stroke-width="2" stroke-linecap="round" stroke-linejoin="round"/>
<path d="M2.83398 9.91683H7.08398" stroke="#0064D9" stroke-width="2" stroke-linecap="round" stroke-linejoin="round"/>
<path d="M4.25065 14.1668H2.83398" stroke="#0064D9" stroke-width="2" stroke-linecap="round" stroke-linejoin="round"/>
</svg>
