<svg width="34" height="34" viewBox="0 0 34 34" fill="none" xmlns="http://www.w3.org/2000/svg">
<path d="M19.7927 28.2524H10.2543C8.50046 28.2524 7.07812 26.8301 7.07812 25.0763C7.07812 23.3224 8.50046 21.9001 10.2543 21.9001H19.4357C21.1895 21.9001 22.6119 20.4778 22.6119 18.7239V18.7211C22.6119 16.9673 21.1895 15.5449 19.4357 15.5449H15.5512" stroke="#0064D9" stroke-width="2" stroke-linecap="round" stroke-linejoin="round"/>
<path fill-rule="evenodd" clip-rule="evenodd" d="M9.19275 15.5422C9.19275 15.5422 4.25 11.482 4.25 7.776C4.25 5.04609 6.46283 2.83325 9.19275 2.83325C11.9227 2.83325 14.1355 5.04609 14.1355 7.776C14.1355 11.4834 9.19275 15.5422 9.19275 15.5422Z" stroke="#0064D9" stroke-width="2" stroke-linecap="round" stroke-linejoin="round"/>
<path d="M9.1927 7.56337C8.9972 7.56337 8.83995 7.72204 8.83995 7.91754C8.83995 8.11162 8.99862 8.27029 9.1927 8.27029C9.3882 8.27029 9.54545 8.11162 9.54545 7.91754C9.54687 7.72204 9.3882 7.56337 9.1927 7.56337" stroke="#0064D9" stroke-width="2" stroke-linecap="round" stroke-linejoin="round"/>
<path d="M27.627 24.0845V27.3448" stroke="#0064D9" stroke-width="1.5" stroke-linecap="round" stroke-linejoin="round"/>
<path d="M31.1654 28.132C31.1654 27.6972 30.8129 27.3447 30.3781 27.3447H24.8693C24.4345 27.3447 24.082 27.6972 24.082 28.132" stroke="#0064D9" stroke-width="1.5" stroke-linecap="round" stroke-linejoin="round"/>
<path fill-rule="evenodd" clip-rule="evenodd" d="M25.0939 31.1678H30.1535C30.7123 31.1678 31.1654 30.7148 31.1654 30.1559V26.5485C31.1653 26.1384 31.0823 25.7326 30.9215 25.3554L30.6402 24.6987C30.481 24.3263 30.1152 24.0847 29.7102 24.0845H25.5372C25.1318 24.0843 24.7655 24.326 24.6062 24.6987L24.3259 25.3544C24.1651 25.7316 24.0821 26.1374 24.082 26.5474V30.1559C24.082 30.7148 24.5351 31.1678 25.0939 31.1678Z" stroke="#0064D9" stroke-width="1.5" stroke-linecap="round" stroke-linejoin="round"/>
</svg>
