<svg width="40" height="40" viewBox="0 0 40 40" fill="none" xmlns="http://www.w3.org/2000/svg">
<path fill-rule="evenodd" clip-rule="evenodd" d="M11.99 17.8372C11.3414 18.4975 10.2793 18.4975 9.63069 17.8372C7.93165 16.1065 4.99376 12.6467 4.99376 9.40704C4.99376 6.04897 7.59818 3.32617 10.8112 3.32617C14.0242 3.32617 16.6286 6.04897 16.6286 9.40704C16.6286 12.6467 13.6907 16.1065 11.99 17.8372Z" stroke="#0064D9" stroke-width="3" stroke-linecap="round" stroke-linejoin="round"/>
<path d="M10.8095 8.89326C10.5794 8.89326 10.3943 9.08 10.3943 9.3101C10.3943 9.53853 10.5811 9.72527 10.8095 9.72527C11.0396 9.72527 11.2247 9.53853 11.2247 9.3101C11.2264 9.08 11.0396 8.89326 10.8095 8.89326" stroke="#0064D9" stroke-width="3" stroke-linecap="round" stroke-linejoin="round"/>
<path fill-rule="evenodd" clip-rule="evenodd" d="M33.6057 29.259L28.7887 32.1085C28.1868 32.4653 28.1868 33.3374 28.7887 33.6925L33.6057 36.542C34.2243 36.9088 35.0063 36.462 35.0063 35.7434V30.0577C35.0063 29.339 34.2243 28.8922 33.6057 29.259Z" stroke="#0064D9" stroke-width="3" stroke-linecap="round" stroke-linejoin="round"/>
<path d="M21.6674 32.8347H13.3306C11.4881 32.8347 9.99585 31.3424 9.99585 29.5V29.5C9.99585 27.6576 11.4881 26.1653 13.3306 26.1653H22.7528C24.9154 26.1653 26.6695 24.4112 26.6695 22.2487V22.2487C26.6695 20.0861 24.9154 18.332 22.7528 18.332H18.3327" stroke="#0064D9" stroke-width="3" stroke-linecap="round" stroke-linejoin="round"/>
</svg>
