<svg width="40" height="40" viewBox="0 0 40 40" fill="none" xmlns="http://www.w3.org/2000/svg">
<path fill-rule="evenodd" clip-rule="evenodd" d="M31.6667 35H23.3333C21.4917 35 20 33.5083 20 31.6667V23.3333C20 21.4917 21.4917 20 23.3333 20H31.6667C33.5083 20 35 21.4917 35 23.3333V31.6667C35 33.5083 33.5083 35 31.6667 35Z" stroke="#0064D9" stroke-width="3" stroke-linecap="round" stroke-linejoin="round"/>
<path fill-rule="evenodd" clip-rule="evenodd" d="M16.6667 35H8.33333C6.49167 35 5 33.5083 5 31.6667V23.3333C5 21.4917 6.49167 20 8.33333 20H16.6667C18.5083 20 20 21.4917 20 23.3333V31.6667C20 33.5083 18.5083 35 16.6667 35Z" stroke="#0064D9" stroke-width="3" stroke-linecap="round" stroke-linejoin="round"/>
<path fill-rule="evenodd" clip-rule="evenodd" d="M24.1667 20H15.8333C13.9917 20 12.5 18.5083 12.5 16.6667V8.33333C12.5 6.49167 13.9917 5 15.8333 5H24.1667C26.0083 5 27.5 6.49167 27.5 8.33333V16.6667C27.5 18.5083 26.0083 20 24.1667 20Z" stroke="#0064D9" stroke-width="3" stroke-linecap="round" stroke-linejoin="round"/>
<path d="M10 30.0003H13.3333" stroke="#0064D9" stroke-width="3" stroke-linecap="round" stroke-linejoin="round"/>
<path d="M16.6667 15.0003H20" stroke="#0064D9" stroke-width="3" stroke-linecap="round" stroke-linejoin="round"/>
<path d="M25 30.0003H28.3333" stroke="#0064D9" stroke-width="3" stroke-linecap="round" stroke-linejoin="round"/>
</svg>
