<svg width="40" height="40" viewBox="0 0 40 40" fill="none" xmlns="http://www.w3.org/2000/svg">
<path fill-rule="evenodd" clip-rule="evenodd" d="M19.4998 8.32826C20.881 8.32826 22.0008 7.2085 22.0008 5.82721C22.0008 4.44593 20.881 3.32617 19.4998 3.32617C18.1185 3.32617 16.9987 4.44593 16.9987 5.82721C16.9987 7.2085 18.1185 8.32826 19.4998 8.32826Z" stroke="#0064D9" stroke-width="3" stroke-linecap="round" stroke-linejoin="round"/>
<path fill-rule="evenodd" clip-rule="evenodd" d="M18.3326 26.6695H21.0004C22.0008 26.6695 22.6678 26.0025 22.6678 25.0021V20.4169L24.3351 18.4161C24.5019 18.0826 24.6686 17.7491 24.6686 17.4156V13.7474C24.6686 12.747 24.0017 12.0801 23.0012 12.0801H16.3318C15.3314 12.0801 14.6644 12.747 14.6644 13.7474V17.4156C14.6644 17.7491 14.8312 18.0826 14.9979 18.4161L16.6653 20.4169V25.0021C16.6653 26.0025 17.3322 26.6695 18.3326 26.6695Z" stroke="#0064D9" stroke-width="3" stroke-linecap="round" stroke-linejoin="round"/>
<path d="M17.9991 35.0056L20 33.0047L17.9991 31.0039" stroke="#0064D9" stroke-width="3" stroke-linecap="round" stroke-linejoin="round"/>
<path d="M30.0041 22.8408C33.0654 23.9063 35.0062 25.4452 35.0062 27.1693C35.0062 29.6236 31.1046 31.7212 25.5856 32.5832" stroke="#0064D9" stroke-width="3" stroke-linecap="round" stroke-linejoin="round"/>
<path d="M9.9958 22.8408C6.93452 23.9063 4.99371 25.4452 4.99371 27.1693C4.99371 30.3923 11.7115 33.0051 20 33.0051" stroke="#0064D9" stroke-width="3" stroke-linecap="round" stroke-linejoin="round"/>
</svg>
