<svg width="41" height="41" viewBox="0 0 41 41" fill="none" xmlns="http://www.w3.org/2000/svg">
<rect x="1.5" y="1.5" width="38" height="38" rx="19" fill="white" stroke="#6BCB77" stroke-width="3"/>
<path d="M20.4983 24.4114V23.7474C20.4983 21.5727 21.887 20.3956 23.279 19.491C24.6378 18.6058 26 17.4511 26 15.3213C26 12.38 23.5375 10 20.5017 10C17.4658 10 15 12.3768 15 15.3181" stroke="#6BCB77" stroke-width="3" stroke-linecap="round" stroke-linejoin="round"/>
<path d="M20.4917 28.9156C20.2166 28.9156 19.9946 29.1305 19.9979 29.3967C19.9979 29.663 20.22 29.8779 20.495 29.8779C20.7701 29.8779 20.9922 29.663 20.9922 29.3967C20.9922 29.1305 20.7734 28.9156 20.4917 28.9156" stroke="#6BCB77" stroke-width="3" stroke-linecap="round" stroke-linejoin="round"/>
</svg>
