<svg width="41" height="41" viewBox="0 0 41 41" fill="none" xmlns="http://www.w3.org/2000/svg">
<rect x="1" y="1" width="39" height="39" rx="19.5" fill="white" stroke="#FFD93D" stroke-width="2"/>
<path fill-rule="evenodd" clip-rule="evenodd" d="M21.4187 27.6148C21.153 27.4923 20.847 27.4923 20.5813 27.6148L15.0309 30.1737C14.287 30.5167 13.4689 29.8688 13.6323 29.0662L14.743 23.6089C14.8102 23.2788 14.7067 22.9371 14.4676 22.6998L10.4649 18.7263C9.87191 18.1376 10.2197 17.1243 11.0492 17.0238L16.7136 16.3378C17.0421 16.298 17.3296 16.0983 17.4816 15.8044L20.1117 10.7179C20.4845 9.99696 21.5155 9.99696 21.8883 10.7179L24.5184 15.8044C24.6704 16.0983 24.9579 16.298 25.2864 16.3378L30.9508 17.0238C31.7803 17.1243 32.1281 18.1376 31.5351 18.7263L27.5324 22.6998C27.2933 22.9371 27.1898 23.2788 27.257 23.6089L28.3677 29.0662C28.5311 29.8688 27.713 30.5167 26.9691 30.1737L21.4187 27.6148Z" fill="#FFD93D"/>
</svg>
