<svg width="30" height="30" viewBox="0 0 30 30" fill="none" xmlns="http://www.w3.org/2000/svg">
<path fill-rule="evenodd" clip-rule="evenodd" d="M7.49766 26.2547H4.99661C4.30597 26.2547 3.74609 25.6948 3.74609 25.0041V17.501C3.74609 16.8104 4.30597 16.2505 4.99661 16.2505H7.49766C8.1883 16.2505 8.74818 16.8104 8.74818 17.501V25.0041C8.74818 25.6948 8.1883 26.2547 7.49766 26.2547Z" stroke="#6BCB77" stroke-width="2" stroke-linecap="round" stroke-linejoin="round"/>
<path d="M16.8762 4.99585V10.7482" stroke="#6BCB77" stroke-width="2" stroke-linecap="round" stroke-linejoin="round"/>
<path d="M25.0048 17.5009V12.5488C25.0014 11.5537 24.1941 10.7487 23.1991 10.748H10.5538C9.55874 10.7487 8.75149 11.5537 8.74805 12.5488V18.8764" stroke="#6BCB77" stroke-width="2" stroke-linecap="round" stroke-linejoin="round"/>
<path d="M8.74805 17.5008V9.96144C8.74831 9.47363 8.84699 8.99089 9.03817 8.5421L10.0273 6.22864C10.3469 5.48054 11.0821 4.99534 11.8956 4.99562H21.856C22.672 4.99299 23.4106 5.47847 23.7318 6.22864L24.7209 8.5446C24.9103 8.99375 25.0068 9.47653 25.0048 9.96395V18.1073" stroke="#6BCB77" stroke-width="2" stroke-linecap="round" stroke-linejoin="round"/>
<path d="M16.2512 21.2525H19.1686C19.7098 21.2525 20.2363 21.0769 20.6693 20.7523L23.6905 18.4863C24.4448 17.9209 25.5 17.996 26.1666 18.6626V18.6626C26.5219 19.0177 26.7216 19.4995 26.7216 20.0019C26.7216 20.5043 26.5219 20.9861 26.1666 21.3412L23.5742 23.9336C22.8759 24.6319 21.9865 25.1079 21.0182 25.3016L17.3541 26.0345C16.6277 26.1797 15.8781 26.1617 15.1595 25.9819L11.8456 25.1541C11.4494 25.0542 11.0424 25.0038 10.6338 25.004H8.74805" stroke="#6BCB77" stroke-width="2" stroke-linecap="round" stroke-linejoin="round"/>
<path d="M16.2512 21.2526H18.1082C19.1545 21.2526 20.0027 20.4044 20.0027 19.358V18.9829C20.0027 18.1139 19.4114 17.3565 18.5684 17.1459L15.7022 16.4293C15.2365 16.3118 14.7581 16.2517 14.2778 16.2505V16.2505C13.1183 16.2501 11.9847 16.5935 11.0202 17.2371L8.74805 18.7515" stroke="#6BCB77" stroke-width="2" stroke-linecap="round" stroke-linejoin="round"/>
</svg>
