<svg width="30" height="30" viewBox="0 0 30 30" fill="none" xmlns="http://www.w3.org/2000/svg">
<path d="M23.3803 22.8704C24.1541 23.6441 24.1541 24.8979 23.3803 25.6704C22.6066 26.4441 21.3528 26.4441 20.5803 25.6704C19.8066 24.8966 19.8066 23.6429 20.5803 22.8704C21.3541 22.0966 22.6078 22.0966 23.3803 22.8704" stroke="#6BCB77" stroke-width="2" stroke-linecap="round" stroke-linejoin="round"/>
<path d="M9.62984 22.8699C10.4036 23.6436 10.4036 24.8974 9.62984 25.6699C8.85609 26.4436 7.60234 26.4436 6.82984 25.6699C6.05734 24.8961 6.05609 23.6424 6.82984 22.8699C7.60359 22.0974 8.85609 22.0961 9.62984 22.8699" stroke="#6BCB77" stroke-width="2" stroke-linecap="round" stroke-linejoin="round"/>
<path d="M12.5 5H17.5C18.19 5 18.75 5.56 18.75 6.25V18.75H2.5" stroke="#6BCB77" stroke-width="2" stroke-linecap="round" stroke-linejoin="round"/>
<path d="M6.25 24.27H3.75C3.06 24.27 2.5 23.71 2.5 23.02V16.25" stroke="#6BCB77" stroke-width="2" stroke-linecap="round" stroke-linejoin="round"/>
<path d="M18.75 8.75H24.1537C24.665 8.75 25.125 9.06125 25.3137 9.53625L27.3212 14.5538C27.4387 14.8488 27.5 15.1638 27.5 15.4813V22.9163C27.5 23.6063 26.94 24.1663 26.25 24.1663H23.9613" stroke="#6BCB77" stroke-width="2" stroke-linecap="round" stroke-linejoin="round"/>
<path d="M20.0004 24.2754H10.2129" stroke="#6BCB77" stroke-width="2" stroke-linecap="round" stroke-linejoin="round"/>
<path d="M27.5 17.5H22.5V12.5H26.5" stroke="#6BCB77" stroke-width="2" stroke-linecap="round" stroke-linejoin="round"/>
<path d="M2.5 5H8.75" stroke="#6BCB77" stroke-width="2" stroke-linecap="round" stroke-linejoin="round"/>
<path d="M2.5 8.75H6.25" stroke="#6BCB77" stroke-width="2" stroke-linecap="round" stroke-linejoin="round"/>
<path d="M3.75 12.5H2.5" stroke="#6BCB77" stroke-width="2" stroke-linecap="round" stroke-linejoin="round"/>
</svg>
