<svg width="30" height="30" viewBox="0 0 30 30" fill="none" xmlns="http://www.w3.org/2000/svg">
<path d="M3.75 8.75H2.5" stroke="#6BCB77" stroke-width="2" stroke-linecap="round" stroke-linejoin="round"/>
<path d="M5 5H2.5" stroke="#6BCB77" stroke-width="2" stroke-linecap="round" stroke-linejoin="round"/>
<path d="M21.25 25H3.75" stroke="#6BCB77" stroke-width="2" stroke-linecap="round" stroke-linejoin="round"/>
<path d="M21.5933 5L20.3608 9.10875C20.202 9.6375 19.7145 10 19.1633 10H15.2733C14.4358 10 13.8358 9.1925 14.0758 8.39125L15.0933 5" stroke="#6BCB77" stroke-width="2" stroke-linecap="round" stroke-linejoin="round"/>
<path d="M10 16.25H12.6625" stroke="#6BCB77" stroke-width="2" stroke-linecap="round" stroke-linejoin="round"/>
<path fill-rule="evenodd" clip-rule="evenodd" d="M21.7978 20H8.56281C6.55281 20 5.11156 18.0625 5.68906 16.1375L8.38906 7.1375C8.77031 5.86875 9.93781 5 11.2628 5H24.4991C26.5091 5 27.9503 6.9375 27.3728 8.8625L24.6728 17.8625C24.2916 19.1312 23.1228 20 21.7978 20Z" stroke="#6BCB77" stroke-width="2" stroke-linecap="round" stroke-linejoin="round"/>
</svg>
