<svg width="30" height="30" viewBox="0 0 30 30" fill="none" xmlns="http://www.w3.org/2000/svg">
<path d="M25.0046 25.0041L20.9404 20.9399" stroke="#6BCB77" stroke-width="2" stroke-linecap="round" stroke-linejoin="round"/>
<path d="M20.9365 7.73058C24.583 11.3772 24.583 17.2894 20.9364 20.936C17.2899 24.5825 11.3776 24.5825 7.73104 20.936C4.08447 17.2894 4.08444 11.3772 7.73098 7.73058C9.48213 5.97941 11.8572 4.99561 14.3337 4.99561C16.8102 4.99561 19.1853 5.97941 20.9365 7.73058" stroke="#6BCB77" stroke-width="2" stroke-linecap="round" stroke-linejoin="round"/>
<path d="M14.3372 9.96021V13.9894" stroke="#6BCB77" stroke-width="2" stroke-linecap="round" stroke-linejoin="round"/>
<path d="M18.7146 14.9623C18.7146 14.425 18.279 13.9894 17.7417 13.9894H10.9338C10.3965 13.9894 9.96094 14.425 9.96094 14.9623" stroke="#6BCB77" stroke-width="2" stroke-linecap="round" stroke-linejoin="round"/>
<path fill-rule="evenodd" clip-rule="evenodd" d="M11.2115 18.7139H17.4641C18.1547 18.7139 18.7146 18.154 18.7146 17.4633V13.0052C18.7145 12.4985 18.612 11.997 18.4132 11.5309L18.0656 10.7193C17.8689 10.2591 17.4168 9.96047 16.9163 9.96021H11.7592C11.2583 9.95997 10.8056 10.2587 10.6087 10.7193L10.2623 11.5296C10.0642 11.9942 9.9617 12.4939 9.96094 12.999V17.4633C9.96094 18.154 10.5208 18.7139 11.2115 18.7139Z" stroke="#6BCB77" stroke-width="2" stroke-linecap="round" stroke-linejoin="round"/>
</svg>
