<svg width="30" height="30" viewBox="0 0 30 30" fill="none" xmlns="http://www.w3.org/2000/svg">
<path fill-rule="evenodd" clip-rule="evenodd" d="M3.75 20.0511V9.94864C3.75 9.05489 4.22625 8.22989 5 7.78364L13.75 2.73239C14.5238 2.28614 15.4762 2.28614 16.25 2.73239L25 7.78364C25.7738 8.22989 26.25 9.05614 26.25 9.94864V20.0524C26.25 20.9461 25.7738 21.7711 25 22.2174L16.25 27.2686C15.4762 27.7149 14.5238 27.7149 13.75 27.2686L5 22.2174C4.22625 21.7699 3.75 20.9449 3.75 20.0511Z" stroke="#6BCB77" stroke-width="2" stroke-linecap="round" stroke-linejoin="round"/>
<path d="M20.6125 16.0751V11.7451L9.375 5.25757" stroke="#6BCB77" stroke-width="2" stroke-linecap="round" stroke-linejoin="round"/>
<path d="M11.3 21.25L7.5 19.05" stroke="#6BCB77" stroke-width="2" stroke-linecap="round" stroke-linejoin="round"/>
<path d="M15 15V27.6" stroke="#6BCB77" stroke-width="2" stroke-linecap="round" stroke-linejoin="round"/>
<path d="M4.08496 8.69873L15 15L25.915 8.69873" stroke="#6BCB77" stroke-width="2" stroke-linecap="round" stroke-linejoin="round"/>
</svg>
