<svg width="30" height="30" viewBox="0 0 30 30" fill="none" xmlns="http://www.w3.org/2000/svg">
<path d="M12.499 9.99782H17.5011" stroke="#6BCB77" stroke-width="2" stroke-linecap="round" stroke-linejoin="round"/>
<path fill-rule="evenodd" clip-rule="evenodd" d="M7.49766 26.2545H3.74609V9.85895C3.74609 8.95098 4.2381 8.11431 5.03163 7.67304L13.7853 2.80976C14.5408 2.38991 15.4595 2.38991 16.215 2.80976L24.9687 7.67304C25.7627 8.11398 26.2555 8.95072 26.2555 9.85895V26.2545H22.5039V14.9998H7.49766V26.2545Z" stroke="#6BCB77" stroke-width="2" stroke-linecap="round" stroke-linejoin="round"/>
<path d="M15.0003 18.7515V22.2054" stroke="#6BCB77" stroke-width="2" stroke-linecap="round" stroke-linejoin="round"/>
<path fill-rule="evenodd" clip-rule="evenodd" d="M12.3207 26.2546H17.6805C18.2723 26.2546 18.7521 25.7748 18.7521 25.1829V21.3613C18.7524 20.9271 18.6643 20.4974 18.4933 20.0983L18.1957 19.4017C18.027 19.0073 17.6393 18.7515 17.2103 18.7515H12.7897C12.3607 18.7518 11.9732 19.0075 11.8043 19.4017L11.5079 20.097C11.3368 20.4961 11.2488 20.9258 11.249 21.3601V25.1829C11.249 25.7748 11.7288 26.2546 12.3207 26.2546V26.2546Z" stroke="#6BCB77" stroke-width="2" stroke-linecap="round" stroke-linejoin="round"/>
<path d="M18.7521 23.0394C18.7525 22.8181 18.6647 22.6057 18.5082 22.4492C18.3517 22.2927 18.1394 22.2049 17.9181 22.2053H12.0831C11.8618 22.2049 11.6495 22.2927 11.493 22.4492C11.3365 22.6057 11.2487 22.8181 11.249 23.0394" stroke="#6BCB77" stroke-width="2" stroke-linecap="round" stroke-linejoin="round"/>
</svg>
