<svg width="40" height="40" viewBox="0 0 40 40" fill="none" xmlns="http://www.w3.org/2000/svg">
<path d="M31.1733 30.4935C32.205 31.5251 32.205 33.1968 31.1733 34.2268C30.1417 35.2585 28.47 35.2585 27.44 34.2268C26.4083 33.1951 26.4083 31.5235 27.44 30.4935C28.4717 29.4618 30.1433 29.4618 31.1733 30.4935" stroke="#0064D9" stroke-width="3" stroke-linecap="round" stroke-linejoin="round"/>
<path d="M12.84 30.4929C13.8716 31.5245 13.8716 33.1962 12.84 34.2262C11.8083 35.2579 10.1366 35.2579 9.10662 34.2262C8.07662 33.1945 8.07495 31.5229 9.10662 30.4929C10.1383 29.4629 11.8083 29.4612 12.84 30.4929" stroke="#0064D9" stroke-width="3" stroke-linecap="round" stroke-linejoin="round"/>
<path d="M16.6666 6.66602H23.3333C24.2533 6.66602 25 7.41268 25 8.33268V24.9993H3.33331" stroke="#0064D9" stroke-width="3" stroke-linecap="round" stroke-linejoin="round"/>
<path d="M8.33331 32.3593H4.99998C4.07998 32.3593 3.33331 31.6127 3.33331 30.6927V21.666" stroke="#0064D9" stroke-width="3" stroke-linecap="round" stroke-linejoin="round"/>
<path d="M25 11.666H32.205C32.8867 11.666 33.5 12.081 33.7517 12.7143L36.4283 19.4043C36.585 19.7977 36.6667 20.2177 36.6667 20.641V30.5543C36.6667 31.4743 35.92 32.221 35 32.221H31.9483" stroke="#0064D9" stroke-width="3" stroke-linecap="round" stroke-linejoin="round"/>
<path d="M26.6666 32.3665H13.6166" stroke="#0064D9" stroke-width="3" stroke-linecap="round" stroke-linejoin="round"/>
<path d="M36.6667 23.3327H30V16.666H35.3333" stroke="#0064D9" stroke-width="3" stroke-linecap="round" stroke-linejoin="round"/>
<path d="M3.33331 6.66634H11.6666" stroke="#0064D9" stroke-width="3" stroke-linecap="round" stroke-linejoin="round"/>
<path d="M3.33331 11.6663H8.33331" stroke="#0064D9" stroke-width="3" stroke-linecap="round" stroke-linejoin="round"/>
<path d="M4.99998 16.6663H3.33331" stroke="#0064D9" stroke-width="3" stroke-linecap="round" stroke-linejoin="round"/>
</svg>
