<svg width="24" height="24" viewBox="0 0 24 24" fill="none" xmlns="http://www.w3.org/2000/svg">
<path fill-rule="evenodd" clip-rule="evenodd" d="M12.4311 18.1157C12.1585 17.9854 11.8415 17.9854 11.5689 18.1157L7.32817 20.1419C6.58623 20.4964 5.75734 19.8538 5.9158 19.0469L6.7746 14.6741C6.83783 14.3521 6.7391 14.0196 6.51042 13.7843L3.39896 10.5833C2.82369 9.99142 3.17257 8.99683 3.9915 8.89404L8.33431 8.34897C8.66619 8.30732 8.95526 8.1025 9.10459 7.80321L11.1052 3.79344C11.4734 3.05538 12.5266 3.05538 12.8948 3.79344L14.8954 7.80321C15.0447 8.1025 15.3338 8.30732 15.6657 8.34897L20.0085 8.89404C20.8274 8.99683 21.1763 9.99142 20.601 10.5833L17.4896 13.7843C17.2609 14.0196 17.1622 14.3521 17.2254 14.6741L18.0842 19.0469C18.2427 19.8537 17.4138 20.4964 16.6718 20.1419L12.4311 18.1157Z" fill="#FFD93D"/>
</svg>
