<svg width="40" height="40" viewBox="0 0 40 40" fill="none" xmlns="http://www.w3.org/2000/svg">
<path d="M31.8383 16.665H35.0062C35.9266 16.665 36.6736 17.412 36.6736 18.3324V19.9998C36.6736 20.9201 35.9266 21.6671 35.0062 21.6671H32.5052" stroke="#0064D9" stroke-width="3" stroke-linecap="round" stroke-linejoin="round"/>
<path d="M8.16173 16.665H4.99375C4.07336 16.665 3.32639 17.412 3.32639 18.3324V19.9998C3.32639 20.9201 4.07336 21.6671 4.99375 21.6671H7.49479" stroke="#0064D9" stroke-width="3" stroke-linecap="round" stroke-linejoin="round"/>
<path d="M12.6503 26.2516H14.3176" stroke="#0064D9" stroke-width="3" stroke-linecap="round" stroke-linejoin="round"/>
<path d="M25.9892 26.2516H27.6565" stroke="#0064D9" stroke-width="3" stroke-linecap="round" stroke-linejoin="round"/>
<path d="M8.32846 15.831V8.32789C8.32846 6.48545 9.82075 4.99316 11.6632 4.99316H28.3368C30.1792 4.99316 31.6715 6.48545 31.6715 8.32789V15.831" stroke="#0064D9" stroke-width="3" stroke-linecap="round" stroke-linejoin="round"/>
<path d="M32.4385 19.9997H7.56149" stroke="#0064D9" stroke-width="3" stroke-linecap="round" stroke-linejoin="round"/>
<path fill-rule="evenodd" clip-rule="evenodd" d="M7.49478 21.3204V28.3367C7.49478 30.1791 8.98707 31.6714 10.8295 31.6714H29.1705C31.0129 31.6714 32.5052 30.1791 32.5052 28.3367V21.3204C32.5052 20.4417 32.4185 19.5664 32.2468 18.7044L31.3747 14.3442C31.0629 12.7852 29.694 11.6631 28.1034 11.6631H11.8966C10.306 11.6631 8.93705 12.7852 8.62525 14.3442L7.75322 18.7044C7.58148 19.5664 7.49478 20.4417 7.49478 21.3204Z" stroke="#0064D9" stroke-width="3" stroke-linecap="round" stroke-linejoin="round"/>
<path d="M13.724 31.6705V34.1715C13.724 35.0919 12.9771 35.8389 12.0567 35.8389H10.3893C9.46893 35.8389 8.72195 35.0919 8.72195 34.1715V30.9102" stroke="#0064D9" stroke-width="3" stroke-linecap="round" stroke-linejoin="round"/>
<path d="M31.278 30.9102V34.1715C31.278 35.0919 30.531 35.8389 29.6107 35.8389H27.9433C27.0229 35.8389 26.2759 35.0919 26.2759 34.1715V31.6705" stroke="#0064D9" stroke-width="3" stroke-linecap="round" stroke-linejoin="round"/>
</svg>
